<svg xmlns="http://www.w3.org/2000/svg" xmlns:xlink="http://www.w3.org/1999/xlink" fill="none" version="1.1" width="12" height="12" viewBox="0 0 12 12"><g><g><path d="M6.44933,1.875L6.44933,5.549329999999999L10.125,5.549329999999999Q10.16932,5.549329999999999,10.21279,5.557980000000001Q10.25626,5.56662,10.29721,5.5835799999999995Q10.33815,5.6005400000000005,10.37501,5.62517Q10.41186,5.649789999999999,10.4432,5.68113Q10.47454,5.71247,10.49916,5.74932Q10.52378,5.78617,10.54074,5.82712Q10.55771,5.8680699999999995,10.56635,5.91154Q10.575,5.95501,10.575,5.99933Q10.575,6.04365,10.56635,6.08712Q10.5577,6.13059,10.54074,6.17154Q10.52378,6.21248,10.49916,6.24933Q10.47454,6.28619,10.4432,6.31753Q10.41186,6.34887,10.37501,6.37349Q10.33815,6.39811,10.29721,6.41507Q10.25626,6.43203,10.21279,6.44068Q10.16932,6.44933,10.125,6.44933L6.44933,6.44933L6.44933,10.125Q6.44933,10.16932,6.44068,10.21279Q6.43203,10.25626,6.41507,10.29721Q6.39811,10.33815,6.37349,10.37501Q6.34887,10.41186,6.31753,10.4432Q6.28619,10.47454,6.24933,10.49916Q6.21248,10.52378,6.17154,10.54074Q6.13059,10.55771,6.08712,10.56635Q6.04365,10.575,5.99933,10.575Q5.95501,10.575,5.91154,10.56635Q5.8680699999999995,10.5577,5.82712,10.54074Q5.78617,10.52378,5.74932,10.49916Q5.71247,10.47454,5.68113,10.4432Q5.649789999999999,10.41186,5.62517,10.37501Q5.6005400000000005,10.33815,5.5835799999999995,10.29721Q5.56662,10.25626,5.557980000000001,10.21279Q5.549329999999999,10.16932,5.549329999999999,10.125L5.549329999999999,10.12454L5.549329999999999,6.44933L1.875,6.44933Q1.8306789,6.44933,1.7872094,6.44068Q1.74374,6.43203,1.702792,6.41507Q1.661845,6.39811,1.624993,6.37349Q1.588142,6.34887,1.556802,6.31753Q1.525462,6.28619,1.500839,6.24933Q1.476215,6.21248,1.459254,6.17154Q1.442293,6.13059,1.4336470000000001,6.08712Q1.425,6.04365,1.425,5.99933Q1.425,5.95501,1.4336470000000001,5.91154Q1.442293,5.8680699999999995,1.459254,5.82712Q1.476215,5.78617,1.500839,5.74932Q1.525462,5.71247,1.556802,5.68113Q1.588142,5.649789999999999,1.624993,5.62517Q1.661845,5.6005400000000005,1.702792,5.5835799999999995Q1.74374,5.56662,1.7872094,5.557980000000001Q1.8306789,5.549329999999999,1.875,5.549329999999999L1.875463224,5.549329999999999L5.549329999999999,5.549329999999999L5.549329999999999,1.875Q5.549329999999999,1.8306789,5.557980000000001,1.7872094Q5.56662,1.74374,5.5835799999999995,1.702792Q5.6005400000000005,1.661845,5.62517,1.624993Q5.649789999999999,1.588142,5.68113,1.556802Q5.71247,1.525462,5.74932,1.500839Q5.78617,1.476215,5.82712,1.459254Q5.8680699999999995,1.442293,5.91154,1.4336470000000001Q5.95501,1.425,5.99933,1.425Q6.04365,1.425,6.08712,1.4336470000000001Q6.13059,1.442293,6.17154,1.459254Q6.21248,1.476215,6.24933,1.500839Q6.28619,1.525462,6.31753,1.556802Q6.34887,1.588142,6.37349,1.624993Q6.39811,1.661845,6.41507,1.702792Q6.43203,1.74374,6.44068,1.7872094Q6.44933,1.8306789,6.44933,1.875Z" fill-rule="evenodd" fill="#333333" fill-opacity="1"/></g></g></svg>