<svg xmlns="http://www.w3.org/2000/svg" xmlns:xlink="http://www.w3.org/1999/xlink" fill="none" version="1.1" width="16" height="16" viewBox="0 0 16 16"><defs><clipPath id="master_svg0_6356_18328"><rect x="0" y="0" width="16" height="16" rx="4"/></clipPath></defs><g clip-path="url(#master_svg0_6356_18328)"><g><path d="M4.42436,3.575832L8,7.15147L11.57558,3.575891L11.57574,3.575736Q11.660129999999999,3.491345,11.770389999999999,3.445672Q11.88065,3.4,12,3.4Q12.05909,3.4,12.11705,3.411529Q12.17501,3.423058,12.22961,3.445672Q12.28421,3.468287,12.33334,3.501118Q12.38248,3.53395,12.42426,3.575736Q12.46605,3.617522,12.49888,3.666658Q12.53171,3.715793,12.55433,3.77039Q12.57694,3.824986,12.58847,3.882946Q12.6,3.9409052,12.6,4Q12.6,4.119347,12.55433,4.22961Q12.50866,4.339873,12.42426,4.424264L12.42386,4.424673L8.42426,8.42426Q8.382480000000001,8.46605,8.33334,8.49888Q8.28421,8.53171,8.229610000000001,8.55433Q8.17501,8.57694,8.117049999999999,8.588470000000001Q8.059090000000001,8.6,8,8.6Q7.9409,8.6,7.88295,8.588470000000001Q7.82499,8.57694,7.77039,8.55433Q7.71579,8.53171,7.66666,8.49888Q7.61752,8.46605,7.57574,8.42426L3.575832,4.42436L3.575736,4.424264Q3.491345,4.339873,3.445672,4.22961Q3.4,4.119347,3.4,4Q3.4,3.9409052,3.411529,3.882946Q3.423058,3.824986,3.445672,3.77039Q3.468287,3.715793,3.501118,3.666658Q3.53395,3.617522,3.575736,3.575736Q3.617522,3.53395,3.666658,3.501118Q3.715793,3.468287,3.77039,3.445672Q3.824986,3.423058,3.882946,3.411529Q3.9409052,3.4,4,3.4Q4.119347,3.4,4.22961,3.445672Q4.339873,3.491345,4.424264,3.575736L4.42436,3.575832ZM4.424419,7.575889999999999L8,11.15147L11.57554,7.57593L11.57574,7.57574Q11.660129999999999,7.49134,11.770389999999999,7.44567Q11.88065,7.4,12,7.4Q12.05909,7.4,12.11705,7.41153Q12.17501,7.4230599999999995,12.22961,7.44567Q12.28421,7.46829,12.33334,7.50112Q12.38248,7.53395,12.42426,7.57574Q12.46605,7.61752,12.49888,7.66666Q12.53171,7.71579,12.55433,7.77039Q12.57694,7.82499,12.58847,7.88295Q12.6,7.9409,12.6,8Q12.6,8.11935,12.55433,8.229610000000001Q12.50866,8.339870000000001,12.42426,8.42426L8.42426,12.42426Q8.382480000000001,12.46605,8.33334,12.49888Q8.28421,12.53171,8.229610000000001,12.55433Q8.17501,12.57694,8.117049999999999,12.58847Q8.059090000000001,12.6,8,12.6Q7.9409,12.6,7.88295,12.58847Q7.82499,12.57694,7.77039,12.55433Q7.71579,12.53171,7.66666,12.49888Q7.61752,12.46605,7.57574,12.42426L3.575891,8.42442L3.575736,8.42426Q3.491345,8.339870000000001,3.445672,8.229610000000001Q3.4,8.11935,3.4,8Q3.4,7.9409,3.411529,7.88295Q3.423058,7.82499,3.445672,7.77039Q3.468287,7.71579,3.501118,7.66666Q3.53395,7.61752,3.575736,7.57574Q3.617522,7.53395,3.666658,7.50112Q3.715793,7.46829,3.77039,7.44567Q3.824986,7.4230599999999995,3.882946,7.41153Q3.9409052,7.4,4,7.4Q4.119347,7.4,4.22961,7.44567Q4.339873,7.49134,4.424264,7.57574L4.424419,7.575889999999999Z" fill-rule="evenodd" fill="#666666" fill-opacity="1"/></g></g></svg>