<svg xmlns="http://www.w3.org/2000/svg" xmlns:xlink="http://www.w3.org/1999/xlink" fill="none" version="1.1" width="1550.833984375" height="920" viewBox="0 0 1550.833984375 920"><defs><clipPath id="master_svg0_4488_0521"><rect x="0" y="0" width="1550.833984375" height="920" rx="0"/></clipPath><filter id="master_svg1_4488_0592" filterUnits="objectBoundingBox" color-interpolation-filters="sRGB" x="-142" y="-142" width="459" height="332"><feFlood flood-opacity="0" result="BackgroundImageFix"/><feBlend mode="normal" in="SourceGraphic" in2="BackgroundImageFix" result="shape"/><feGaussianBlur stdDeviation="35.5" result="effect1_foregroundBlur"/></filter><linearGradient x1="0.49986740946769714" y1="1" x2="0.49986740946769714" y2="0.000004492965217650635" id="master_svg2_4462_1205"><stop offset="0%" stop-color="#1D74F5" stop-opacity="1"/><stop offset="51.99999809265137%" stop-color="#28A5FF" stop-opacity="1"/><stop offset="100%" stop-color="#EEF5FF" stop-opacity="1"/></linearGradient><linearGradient x1="0.49962669610977173" y1="0.9998995661735535" x2="0.49962669610977173" y2="-0.00010043185466201976" id="master_svg3_4462_1252"><stop offset="0%" stop-color="#1D74F5" stop-opacity="1"/><stop offset="50.999999046325684%" stop-color="#0095FF" stop-opacity="1"/><stop offset="100%" stop-color="#FFFFFF" stop-opacity="1"/></linearGradient><linearGradient x1="0.4998714327812195" y1="1" x2="0.4998714327812195" y2="-0.0000027640232929115882" id="master_svg4_4462_1285"><stop offset="0%" stop-color="#0096FF" stop-opacity="1"/><stop offset="100%" stop-color="#EEF5FF" stop-opacity="1"/></linearGradient><linearGradient x1="0.5" y1="0" x2="0.5" y2="1" id="master_svg5_4462_1286"><stop offset="0%" stop-color="#FFFFFF" stop-opacity="0"/><stop offset="100%" stop-color="#FFFFFF" stop-opacity="0.10999999940395355"/></linearGradient><linearGradient x1="0.4996306896209717" y1="0.9997991323471069" x2="0.4996306896209717" y2="-0.00020086370932403952" id="master_svg6_4462_1214"><stop offset="0%" stop-color="#1D74F5" stop-opacity="1"/><stop offset="25.999999046325684%" stop-color="#0095FF" stop-opacity="1"/><stop offset="62.00000047683716%" stop-color="#FFFFFF" stop-opacity="1"/></linearGradient><filter id="master_svg7_4488_0526" filterUnits="objectBoundingBox" color-interpolation-filters="sRGB" x="0" y="0" width="178.9446563720703" height="107.23420715332031"><feFlood flood-opacity="0" result="BackgroundImageFix"/><feBlend mode="normal" in="SourceGraphic" in2="BackgroundImageFix" result="shape"/><feGaussianBlur in="BackgroundImage" stdDeviation="5"/><feComposite in2="SourceAlpha" operator="in" result="effect1_foregroundBlur"/><feBlend mode="normal" in="SourceGraphic" in2="effect1_foregroundBlur" result="shape"/></filter><linearGradient x1="0.49986740946769714" y1="1.0003012418746948" x2="0.49986740946769714" y2="0.00030578719452023506" id="master_svg8_4462_1217"><stop offset="0%" stop-color="#8DC8FF" stop-opacity="1"/><stop offset="100%" stop-color="#E8FFFC" stop-opacity="1"/></linearGradient><linearGradient x1="0.49986740946769714" y1="0.9998996257781982" x2="0.49986740946769714" y2="0.00030117458663880825" id="master_svg9_4462_1266"><stop offset="0%" stop-color="#1D74F5" stop-opacity="1"/><stop offset="23.999999463558197%" stop-color="#FFFFFF" stop-opacity="1"/></linearGradient><linearGradient x1="0.29155561327934265" y1="0.15927967429161072" x2="0.7383744120597839" y2="0.8628036975860596" id="master_svga_4470_0777"><stop offset="0%" stop-color="#71D1FF" stop-opacity="1"/><stop offset="100%" stop-color="#1D76F2" stop-opacity="1"/></linearGradient><radialGradient cx="0" cy="0" r="1" gradientUnits="userSpaceOnUse" id="master_svgb_4470_0778" gradientTransform="translate(239.50000303256274 -6.999999870155023) rotate(36.56781419999475) scale(284.5039513967961 138.90638078191733)"><stop offset="0%" stop-color="#FFFFFF" stop-opacity="0.46000000834465027"/><stop offset="100%" stop-color="#FFFFFF" stop-opacity="0"/></radialGradient><linearGradient x1="0.25946739315986633" y1="0.17306828498840332" x2="0.7603933811187744" y2="0.8346811532974243" id="master_svgc_4462_1248"><stop offset="0%" stop-color="#6AC6FF" stop-opacity="1"/><stop offset="100%" stop-color="#1D8BFF" stop-opacity="1"/></linearGradient><linearGradient x1="0.5" y1="0.9997225403785706" x2="0.5" y2="2.886579864025407e-15" id="master_svgd_4462_1256"><stop offset="0%" stop-color="#1D76F2" stop-opacity="1"/><stop offset="0%" stop-color="#1F77F2" stop-opacity="1"/><stop offset="5.000000074505806%" stop-color="#4891F5" stop-opacity="1"/><stop offset="10.000000149011612%" stop-color="#6CA7F7" stop-opacity="1"/><stop offset="15.000000596046448%" stop-color="#8CBCF9" stop-opacity="1"/><stop offset="20.999999344348907%" stop-color="#A8CDFB" stop-opacity="1"/><stop offset="28.00000011920929%" stop-color="#BEDBFD" stop-opacity="1"/><stop offset="37.00000047683716%" stop-color="#CFE5FE" stop-opacity="1"/><stop offset="46.99999988079071%" stop-color="#DAEDFE" stop-opacity="1"/><stop offset="61.000001430511475%" stop-color="#E1F1FF" stop-opacity="1"/><stop offset="100%" stop-color="#E3F2FF" stop-opacity="1"/></linearGradient></defs><g clip-path="url(#master_svg0_4488_0521)"><g><path d="M650.963,24.61962890625L0,400.45962890625L191.463,510.99962890625L842.426,135.15962890625002L650.963,24.61962890625Z" fill="#F9FAFC" fill-opacity="1"/></g><g><path d="M1550.8338671875,544.159423828125L842.4258671875,135.159423828125L191.4638671875,510.999423828125L899.8608671875,919.999423828125L1550.8338671875,544.159423828125Z" fill="#FFFFFF" fill-opacity="1"/></g><g><path d="M663.6600421875,83.62695L636.1219421875,99.52295000000001C633.4562421875,101.06205,630.1719421875,101.06205,627.5061421875,99.52295000000001L599.9788921875,83.62695C598.6450351875,82.85765,597.8232421875,81.43495,597.8232421875,79.89525C597.8232421875,78.35545,598.6450351875,76.93275,599.9788921875,76.16355L627.5061421875,60.31054C630.1719421875,58.771486,633.4562421875,58.771486,636.1219421875,60.31054L663.6600421875,76.20655C666.4849421875,77.87344999999999,666.4849421875,81.96005,663.6600421875,83.62695Z" fill="#FFFFFF" fill-opacity="1"/></g><g><path d="M778.5395546875,149.95724921875L751.0019546875,165.85334921875C748.3362546875001,167.39234921874998,745.0519546875,167.39234921874998,742.3862546875,165.85334921875L657.4242046875,116.78664921875C656.0903476875,116.01744921875,655.2685546875,114.59474921875,655.2685546875,113.05494921875C655.2685546875,111.51524921875,656.0903476875,110.09254921875001,657.4242046875,109.32324921875L684.9514546875,93.42723921875C687.6172546875,91.88818121875,690.9015546875,91.88818121875,693.5672546875,93.42723921875L778.5395546875,142.49384921875C779.8735546875,143.26314921875002,780.6955546875,144.68584921875,780.6955546875,146.22554921875C780.6955546875,147.76534921875,779.8735546875,149.18804921875,778.5395546875,149.95724921875Z" fill="#FFFFFF" fill-opacity="1"/></g><g><path d="M721.095109375,183.08484921874998L712.716109375,187.93114921875C710.050109375,189.47024921874998,706.766109375,189.47024921874998,704.100109375,187.93114921875L561.692759375,105.72624921875C560.358902375,104.95694921875,559.537109375,103.53424921875,559.537109375,101.99451921875C559.537109375,100.45476921875,560.358902375,99.03207921875,561.692759375,98.26281921875L570.071609375,93.42723921875C572.737309375,91.88818121875,576.021609375,91.88818121875,578.687309375,93.42723921875L721.095109375,175.65374921875C723.932109375,177.31834921875,723.932109375,181.42014921875,721.095109375,183.08484921874998Z" fill="#FFFFFF" fill-opacity="1"/></g><g><path d="M682.797,205.2270125L674.429,210.0087125C671.763,211.54781250000002,668.479,211.54781250000002,665.813,210.0087125L523.40561,127.8361125C522.071793,127.0668125,521.25,125.6441125,521.25,124.1043825C521.25,122.5646325,522.071793,121.1419525,523.40561,120.3726825L531.7736,115.5371025C534.4394,113.9980445,537.7237,113.9980445,540.3894,115.5371025L682.797,197.7636125C684.131,198.5329125,684.952,199.9556125,684.952,201.4953125C684.952,203.0350125,684.131,204.4577125,682.797,205.2270125Z" fill="#FFFFFF" fill-opacity="1"/></g><g><path d="M644.501359375,227.32631992187498L636.122359375,232.16191992187498C633.456359375,233.700919921875,630.172359375,233.700919921875,627.506359375,232.16191992187498L485.098969375,149.956919921875C483.765152375,149.187719921875,482.943359375,147.765019921875,482.943359375,146.225249921875C482.943359375,144.685509921875,483.765152375,143.262829921875,485.098969375,142.493559921875L493.488559375,137.647209921875C496.154259375,136.108151921875,499.438559375,136.108151921875,502.104259375,137.647209921875L644.501359375,219.862919921875C645.834359375,220.632219921875,646.656359375,222.054919921875,646.656359375,223.594619921875C646.656359375,225.134319921875,645.834359375,226.557019921875,644.501359375,227.32631992187498Z" fill="#FFFFFF" fill-opacity="1"/></g><g><path d="M606.2252265625,249.43667148437498L597.8362265625,254.283071484375C595.1702265625,255.822071484375,591.8862265625,255.822071484375,589.2202265625,254.283071484375L446.8128365625,172.056571484375C445.4790195625,171.287271484375,444.6572265625,169.864571484375,444.6572265625,168.32484148437499C444.6572265625,166.785091484375,445.4790195625,165.362421484375,446.8128365625,164.593151484375L455.1916265625,159.757561484375C457.8574265625,158.218503484375,461.1416265625,158.218503484375,463.8074265625,159.757561484375L606.2252265625,241.984071484375C609.0872265625001,243.644071484375,609.0872265625001,247.77667148437502,606.2252265625,249.43667148437498Z" fill="#FFFFFF" fill-opacity="1"/></g><g><path d="M567.92909375,271.546592578125L559.53909375,276.382192578125C556.87309375,277.921192578125,553.58909375,277.921192578125,550.92309375,276.382192578125L408.52670375,194.155692578125C407.19288675,193.386392578125,406.37109375,191.963692578125,406.37109375,190.42396257812499C406.37109375,188.884222578125,407.19288675,187.461542578125,408.52670375,186.692272578125L416.90549375,181.856682578125C419.57129375,180.317624578125,422.85549375,180.317624578125,425.52129375,181.856682578125L567.92909375,264.083192578125C569.26209375,264.852492578125,570.08409375,266.27519257812503,570.08409375,267.814892578125C570.08409375,269.354592578125,569.26209375,270.777292578125,567.92909375,271.546592578125Z" fill="#FFFFFF" fill-opacity="1"/></g><g><path d="M242.44703906249998,459.466812890625L214.9091390625,475.362812890625C212.2434390625,476.901912890625,208.95913906250001,476.901912890625,206.2934390625,475.362812890625L121.3206390625,426.306912890625C119.9868400625,425.537712890625,119.1650390625,424.115012890625,119.1650390625,422.575312890625C119.1650390625,421.035512890625,119.9868400625,419.612812890625,121.3206390625,418.843612890625L148.8587390625,402.947512890625C151.5244390625,401.408444890625,154.8087390625,401.408444890625,157.47443906249998,402.947512890625L242.44703906249998,452.003412890625C243.78103906249999,452.77271289062503,244.6030390625,454.195312890625,244.6030390625,455.735112890625C244.6030390625,457.274812890625,243.78103906249999,458.697512890625,242.44703906249998,459.466812890625Z" fill="#FFFFFF" fill-opacity="1"/></g><g><path d="M127.55646875,393.093533984375L100.02916875,409.032733984375C97.36336875,410.571733984375,94.07906875,410.571733984375,91.41336875,409.032733984375L63.88606875,393.093533984375C62.55227375,392.324333984375,61.73046875,390.901633984375,61.73046875,389.361933984375C61.73046875,387.822133984375,62.55227375,386.399433984375,63.88606875,385.630233984375L91.41336875,369.734133984375C94.07906875,368.195065984375,97.36336875,368.195065984375,100.02916875,369.734133984375L127.55646875,385.630233984375C128.89026875000002,386.399433984375,129.71206875000001,387.822133984375,129.71206875000001,389.361933984375C129.71206875000001,390.901633984375,128.89026875000002,392.324333984375,127.55646875,393.093533984375Z" fill="#FFFFFF" fill-opacity="1"/></g><g filter="url(#master_svg1_4488_0592)"><ellipse cx="493.5" cy="293" rx="87.5" ry="24" fill="#B9C7D8" fill-opacity="1"/></g><g><path d="M835.9638671875,249.425786328125L789.2986671875,276.349986328125C786.6329671875,277.889086328125,783.3486671875,277.889086328125,780.6829671875,276.349986328125L714.8694471875,238.365386328125C713.5356601875,237.596086328125,712.7138671875,236.173386328125,712.7138671875,234.633686328125C712.7138671875,233.093986328125,713.5356601875,231.671286328125,714.8694471875,230.901986328125L761.5344671875,203.977776328125C764.2002671875,202.438718328125,767.4844671875001,202.438718328125,770.1502671875,203.977776328125L835.9638671875,241.973186328125C838.8258671875,243.633286328125,838.8258671875,247.765786328125,835.9638671875,249.425786328125Z" fill="#F9FAFC" fill-opacity="1"/></g><g><path d="M931.7055703125,304.706663671875L885.0409703125,331.630863671875C882.3752703125,333.169963671875,879.0909703125,333.169963671875,876.4251703125,331.630863671875L810.5901503125,293.624663671875C809.2563633125,292.855363671875,808.4345703125,291.432663671875,808.4345703125,289.892963671875C808.4345703125,288.35326367187497,809.2563633125,286.930563671875,810.5901503125,286.161263671875L857.2659703125,259.237053671875C859.9316703125,257.697995671875,863.2159703125,257.697995671875,865.8816703125,259.237053671875L931.7055703125,297.243263671875C933.0395703125,298.012563671875,933.8615703125,299.435263671875,933.8615703125,300.974963671875C933.8615703125,302.514663671875,933.0395703125,303.937363671875,931.7055703125,304.706663671875Z" fill="#F9FAFC" fill-opacity="1"/></g><g><path d="M1123.159203125,415.24638515624997L1076.483803125,442.17058515625C1073.818003125,443.70968515625,1070.533703125,443.70968515625,1067.868003125,442.17058515625L1002.054513125,404.18588515625C999.192766125,402.52588515625,999.192766125,398.39338515625,1002.054513125,396.73328515625L1048.730303125,369.80908515625C1051.396103125,368.27001715625,1054.680303125,368.27001715625,1057.346103125,369.80908515625L1123.159203125,407.81528515625C1125.997203125,409.47988515625,1125.997203125,413.58178515625,1123.159203125,415.24638515624997Z" fill="#F9FAFC" fill-opacity="1"/></g><g><path d="M1218.8916015625,470.50567812500003L1172.2156015625,497.429878125C1169.5499015625,498.96897812500004,1166.2656015625,498.96897812500004,1163.5999015625,497.429878125L1097.7971815625,459.434478125C1096.4633945625,458.665178125,1095.6416015625,457.242478125,1095.6416015625,455.702778125C1095.6416015625,454.16307812499997,1096.4633945625,452.740378125,1097.7971815625,451.971078125L1144.4729015625,425.046878125C1147.1387015625,423.507810125,1150.4229015625,423.507810125,1153.0887015625,425.046878125L1218.8916015625,463.031578125C1220.2306015625,463.799378125,1221.0566015625,465.224978125,1221.0566015625,466.768578125C1221.0566015625,468.312178125,1220.2306015625,469.737878125,1218.8916015625,470.50567812500003Z" fill="#F9FAFC" fill-opacity="1"/></g><g><path d="M1027.4279921875,359.976551953125L980.7410921875,386.900751953125C978.0753921875,388.439851953125,974.7910921875,388.439851953125,972.1253921875,386.900751953125L906.3225721875,348.937651953125C904.9887851875,348.168351953125,904.1669921875,346.745651953125,904.1669921875,345.205951953125C904.1669921875,343.66625195312497,904.9887851875,342.243551953125,906.3225721875,341.474251953125L952.9983921875,314.550051953125C955.6640921875,313.010983953125,958.9483921875,313.010983953125,961.6140921875,314.550051953125L1027.4279921875,352.513151953125C1028.7609921875,353.282451953125,1029.5829921875,354.705151953125,1029.5829921875,356.244851953125C1029.5829921875,357.784551953125,1028.7609921875,359.207251953125,1027.4279921875,359.976551953125Z" fill="#F9FAFC" fill-opacity="1"/></g><g><path d="M950.844,404.18622265625L923.317,420.08222265625C920.6510000000001,421.62122265625,917.367,421.62122265625,914.701,420.08222265625L753.15558,326.81692265625C751.821793,326.04772265625,751,324.62502265625,751,323.08532265625C751,321.54552265625,751.821793,320.12282265625,753.15558,319.35362265625L780.6829,303.45752265625C783.3486,301.91845465625,786.6329,301.91845465625,789.2986,303.45752265625L950.844,396.73372265625C953.706,398.39382265625,953.706,402.52622265625,950.844,404.18622265625Z" fill="#F9FAFC" fill-opacity="1"/></g><g><path d="M1142.2968671875,514.790728515625L1114.7808671875,530.675728515625C1112.1148671875,532.214728515625,1108.8308671875,532.214728515625,1106.1648671875,530.675728515625L944.6194471875,437.399728515625C943.2856601875,436.630428515625,942.4638671875,435.207728515625,942.4638671875,433.668028515625C942.4638671875,432.128228515625,943.2856601875,430.705628515625,944.6194471875,429.936328515625L972.1467671875,414.051028515625C974.8124671875,412.511960515625,978.0967671875,412.511960515625,980.7624671875,414.051028515625L1142.3078671875,507.31642851562503C1143.6458671875,508.086228515625,1144.4698671875,509.513028515625,1144.4668671875,511.056628515625C1144.4648671875,512.600228515625,1143.6368671875,514.024728515625,1142.2968671875,514.790728515625Z" fill="#F9FAFC" fill-opacity="1"/></g><g><path d="M1333.7595000000001,625.276798828125L1306.2545,641.161798828125C1303.5885,642.700798828125,1300.3045,642.700798828125,1297.6385,641.161798828125L1136.09315,547.896798828125C1134.759293,547.127498828125,1133.9375,545.704798828125,1133.9375,544.165098828125C1133.9375,542.625298828125,1134.759293,541.202598828125,1136.09315,540.433398828125L1163.6097,524.548098828125C1166.2755,523.009030828125,1169.5597,523.009030828125,1172.2255,524.548098828125L1333.7705,617.813498828125C1335.1035,618.584698828125,1335.9234999999999,620.0085988281251,1335.9205,621.548398828125C1335.9185,623.088098828125,1335.0945,624.509798828125,1333.7595000000001,625.276798828125Z" fill="#F9FAFC" fill-opacity="1"/></g><g><path d="M1276.326421875,658.4367109375L1248.799421875,674.3217109375C1246.133421875,675.8607109375,1242.849421875,675.8607109375,1240.183421875,674.3217109375L1078.638001875,581.0567109375C1077.304214875,580.2874109375,1076.482421875,578.8648109375,1076.482421875,577.3250109375C1076.482421875,575.7853109375,1077.304214875,574.3627109375,1078.638001875,573.5933109375L1106.154621875,557.7080509375C1108.820321875,556.1689759375,1112.104621875,556.1689759375,1114.770321875,557.7080509375L1276.315421875,650.9734109375C1277.6504218750001,651.7407109375,1278.474421875,653.1623109375,1278.476421875,654.7020109375001C1278.478421875,656.2417109375,1277.659421875,657.6657109375,1276.326421875,658.4367109375Z" fill="#F9FAFC" fill-opacity="1"/></g><g><path d="M893.3984296875,437.3566328125L865.8824296875,453.24163281250003C863.2164296875001,454.7806328125,859.9324296875,454.7806328125,857.2664296875,453.24163281250003L695.7210096875,359.9766328125C694.3872226875,359.2073328125,693.5654296875,357.7846328125,693.5654296875,356.2449328125C693.5654296875,354.7051328125,694.3872226875,353.2825328125,695.7210096875,352.5132328125L723.2375296875,336.6279328125C725.9032296875,335.0888648125,729.1875296875,335.0888648125,731.8532296875,336.6279328125L893.3984296875,429.89333281250003C894.7324296875,430.66263281249996,895.5544296875,432.0853328125,895.5544296875,433.62503281249997C895.5544296875,435.1648328125,894.7324296875,436.58763281250003,893.3984296875,437.3566328125Z" fill="#F9FAFC" fill-opacity="1"/></g><g><path d="M1084.862296875,547.8969296875L1057.346296875,563.7819296875C1054.680296875,565.3209296875,1051.396296875,565.3209296875,1048.730296875,563.7819296875L887.184876875,470.5059296875C885.851089875,469.7366296875,885.029296875,468.3139296875,885.029296875,466.7742296875C885.029296875,465.2344296875,885.851089875,463.8118296875,887.184876875,463.0425296875L914.690596875,447.1572296875C917.356396875,445.6181616875,920.640596875,445.6181616875,923.306396875,447.1572296875L1084.8512968750001,540.4334296874999C1086.186296875,541.2007296875,1087.010296875,542.6222296875,1087.012296875,544.1620296875C1087.0142968750001,545.7017296875,1086.195296875,547.1259296875,1084.862296875,547.8969296875Z" fill="#F9FAFC" fill-opacity="1"/></g><g><path d="M835.9641171875,470.51630078125L808.4371171875,486.40130078125003C805.7711171875001,487.94030078125,802.4871171875,487.94030078125,799.8211171875,486.40130078125003L638.2756971875,393.13630078125C636.9419101875,392.36700078125,636.1201171875,390.94430078125,636.1201171875,389.40460078125C636.1201171875,387.86480078125,636.9419101875,386.44220078125,638.2756971875,385.67290078125L665.7922171875,369.78760078125C668.4579171875,368.24853278125,671.7422171875,368.24853278125,674.4079171875,369.78760078125L835.9531171875,463.05300078125003C837.2881171875,463.82040078125,838.1121171875,465.24190078125,838.1141171875,466.78160078125C838.1161171875,468.32140078125,837.2971171875,469.74530078124997,835.9641171875,470.51630078125Z" fill="#F9FAFC" fill-opacity="1"/></g><g><path d="M1218.890875,691.596623046875L1191.363875,707.492623046875C1188.697875,709.031623046875,1185.413875,709.031623046875,1182.747875,707.492623046875L1021.202455,614.227323046875C1019.868668,613.458023046875,1019.046875,612.035323046875,1019.046875,610.495623046875C1019.046875,608.955923046875,1019.868668,607.533223046875,1021.202455,606.763923046875L1048.729775,590.867893046875C1051.395475,589.328823046875,1054.679775,589.328823046875,1057.345475,590.867893046875L1218.890875,684.133323046875C1220.2248749999999,684.902523046875,1221.046875,686.325223046875,1221.046875,687.864923046875C1221.046875,689.404723046875,1220.2248749999999,690.827623046875,1218.890875,691.596623046875Z" fill="#F9FAFC" fill-opacity="1"/></g><g><path d="M1027.427984375,581.05633984375L999.900984375,596.95233984375C997.2349843750001,598.49133984375,993.950984375,598.49133984375,991.284984375,596.95233984375L829.739564375,503.67633984375C828.405777375,502.90713984375,827.583984375,501.48443984375,827.583984375,499.94463984375C827.583984375,498.40493984375,828.405777375,496.98223984375,829.739564375,496.21293984375L857.266884375,480.32763984375C859.932584375,478.78857184375,863.216884375,478.78857184375,865.882584375,480.32763984375L1027.427984375,573.59303984375C1028.7619843749999,574.36233984375,1029.582984375,575.78503984375,1029.582984375,577.32473984375C1029.582984375,578.86453984375,1028.7619843749999,580.28733984375,1027.427984375,581.05633984375Z" fill="#F9FAFC" fill-opacity="1"/></g><g><path d="M1161.4453046875,724.79950390625L1133.9293046875,740.68450390625C1131.2633046875,742.22350390625,1127.9793046875,742.22350390625,1125.3133046875,740.68450390625L963.7678846875,647.41950390625C962.4340976875,646.65020390625,961.6123046875,645.22760390625,961.6123046875,643.68780390625C961.6123046875,642.14810390625,962.4340976875,640.72550390625,963.7678846875,639.95610390625L991.2844046875,624.07084390625C993.9501046875,622.53176890625,997.2344046875,622.53176890625,999.9001046875,624.07084390625L1161.4453046875,717.33620390625C1162.7793046875,718.10550390625,1163.6013046875,719.52820390625,1163.6013046875,721.0680039062499C1163.6013046875,722.60770390625,1162.7793046875,724.03050390625,1161.4453046875,724.79950390625Z" fill="#F9FAFC" fill-opacity="1"/></g><g><path d="M778.529546875,503.676212890625L751.002546875,519.572212890625C748.3365468750001,521.111212890625,745.052546875,521.111212890625,742.386546875,519.572212890625L580.841126875,426.306912890625C579.507339875,425.537712890625,578.685546875,424.115012890625,578.685546875,422.575312890625C578.685546875,421.035512890625,579.507339875,419.612812890625,580.841126875,418.843612890625L608.368446875,402.947512890625C611.034146875,401.408444890625,614.318446875,401.408444890625,616.984146875,402.947512890625L778.529546875,496.21291289062503C779.863546875,496.98221289062496,780.684546875,498.404912890625,780.684546875,499.94461289062497C780.684546875,501.484412890625,779.863546875,502.90721289062503,778.529546875,503.676212890625Z" fill="#F9FAFC" fill-opacity="1"/></g><g><path d="M969.9824140625,614.22749609375L942.4664140625,630.11249609375C939.8004140625001,631.65149609375,936.5164140625,631.65149609375,933.8504140625,630.11249609375L772.3049940625,536.83649609375C770.9712070625,536.06719609375,770.1494140625,534.64449609375,770.1494140625,533.10479609375C770.1494140625,531.56499609375,770.9712070625,530.14239609375,772.3049940625,529.37309609375L799.8107140625,513.48779609375C802.4765140625,511.94872809375,805.7607140625,511.94872809375,808.4265140625,513.48779609375L969.9714140625,606.7639960937499C971.3064140625,607.53129609375,972.1304140625,608.95279609375,972.1324140625,610.49259609375C972.1344140625,612.03229609375,971.3154140624999,613.45649609375,969.9824140625,614.22749609375Z" fill="#F9FAFC" fill-opacity="1"/></g><g><path d="M1104.01078125,757.9269453125L1076.48278125,773.8119453125C1073.81778125,775.3509453125,1070.53278125,775.3509453125,1067.86778125,773.8119453125L906.32209125,680.5361453125C903.46034425,678.8760453125,903.46034425,674.7435453125,906.32209125,673.0835453125L933.84938125,657.1982853125C936.51508125,655.6592103125,939.79938125,655.6592103125,942.46518125,657.1982853125L1104.01078125,750.4636453125C1105.3437812500001,751.2329453125,1106.16578125,752.6556453125,1106.16578125,754.1954453124999C1106.16578125,755.7351453125,1105.3437812500001,757.1579453125,1104.01078125,757.9269453125Z" fill="#F9FAFC" fill-opacity="1"/></g><g><path d="M721.083,536.846822265625L693.567,552.732822265625C690.9010000000001,554.271822265625,687.617,554.271822265625,684.951,552.732822265625L523.40561,459.466922265625C522.071793,458.697622265625,521.25,457.275022265625,521.25,455.735222265625C521.25,454.195422265625,522.071793,452.772822265625,523.40561,452.003522265625L550.9221,436.172122265625C553.5879,434.633054265625,556.8721,434.633054265625,559.5379,436.172122265625L721.083,529.437522265625C723.896,531.106622265625,723.896,535.177822265625,721.083,536.846822265625Z" fill="#F9FAFC" fill-opacity="1"/></g><g><path d="M912.5358671875,647.387408203125L885.0308671875,663.261408203125C882.3648671875001,664.800408203125,879.0808671875,664.800408203125,876.4148671875,663.261408203125L714.8694471875,569.996308203125C713.5356601875,569.227108203125,712.7138671875,567.804408203125,712.7138671875,566.264708203125C712.7138671875,564.724908203125,713.5356601875,563.302308203125,714.8694471875,562.532908203125L742.3751671875,546.647678203125C745.0409671875,545.108640203125,748.3251671875,545.108640203125,750.9909671875,546.647678203125L912.5358671875,639.9239082031249C913.8698671875,640.693108203125,914.6918671875001,642.115908203125,914.6918671875001,643.655608203125C914.6918671875001,645.195308203125,913.8698671875,646.618408203125,912.5358671875,647.387408203125Z" fill="#F9FAFC" fill-opacity="1"/></g><g><path d="M1046.5862109375,791.08712890625L1019.0482109375,806.98312890625C1016.3832109375,808.52212890625,1013.0982109375,808.52212890625,1010.4332109375,806.98312890625L848.8875209375,713.70662890625C846.0257739375,712.04652890625,846.0257739375,707.91402890625,848.8875209375,706.25402890625L876.4256109375,690.33639890625C879.0913109375,688.79732890625,882.3756109375,688.79732890625,885.0413109375,690.33639890625L1046.5862109375,783.60182890625C1047.9312109375,784.36822890625,1048.7612109375,785.79672890625,1048.7612109375,787.34422890625C1048.7612109375,788.89172890625,1047.9312109375,790.32012890625,1046.5862109375,791.08712890625Z" fill="#F9FAFC" fill-opacity="1"/></g><g><path d="M472.1860078125,459.445417578125L444.6478078125,475.341417578125C441.9821078125,476.880517578125,438.6978078125,476.880517578125,436.0321078125,475.341417578125L370.2293178125,437.346017578125C367.3675708125,435.685917578125,367.3675708125,431.553417578125,370.2293178125,429.893417578125L397.7566078125,413.997317578125C400.4223078125,412.458249578125,403.7066078125,412.458249578125,406.3724078125,413.997317578125L472.1750078125,451.982017578125C473.5100078125,452.749317578125,474.3340078125,454.170817578125,474.3360078125,455.710617578125C474.3380078125,457.250317578125,473.51900781250004,458.674217578125,472.1860078125,459.445417578125Z" fill="#F9FAFC" fill-opacity="1"/></g><g><path d="M663.649453125,569.996552734375L636.121453125,585.870552734375C633.456453125,587.409552734375,630.171453125,587.409552734375,627.506453125,585.870552734375L465.960763125,492.594552734375C463.099016125,490.934452734375,463.099016125,486.801952734375,465.960763125,485.141952734375L493.488053125,469.245852734375C496.153753125,467.706784734375,499.438053125,467.706784734375,502.103853125,469.245852734375L663.649453125,562.511252734375C664.993453125,563.277652734375,665.823453125,564.7063527343751,665.823453125,566.253752734375C665.823453125,567.801252734375,664.993453125,569.229552734375,663.649453125,569.996552734375Z" fill="#F9FAFC" fill-opacity="1"/></g><g><path d="M855.1125546875,680.536076171875L827.5855546875,696.432076171875C824.9195546875001,697.971076171875,821.6355546875,697.971076171875,818.9695546875,696.432076171875L657.4241346875,603.166876171875C656.0903476875,602.397576171875,655.2685546875,600.974876171875,655.2685546875,599.435176171875C655.2685546875,597.895476171875,656.0903476875,596.472776171875,657.4241346875,595.703476171875L684.9514546875,579.807346171875C687.6171546875,578.268276171875,690.9014546875,578.268276171875,693.5671546875,579.807346171875L855.1125546875,673.105076171875C857.9495546875,674.7696761718751,857.9495546875,678.871076171875,855.1125546875,680.536076171875Z" fill="#F9FAFC" fill-opacity="1"/></g><g><path d="M989.1426171875,824.24676953125L961.6146171875,840.14276953125C958.9496171875,841.68176953125,955.6646171875,841.68176953125,952.9996171875,840.14276953125L791.4539271875,746.86676953125C788.5921801875,745.20666953125,788.5921801875,741.07416953125,791.4539271875,739.41416953125L818.9812171875,723.51810953125C821.6469171875,721.97903453125,824.9312171875,721.97903453125,827.5970171875,723.51810953125L989.1426171875,816.78346953125C990.4756171875,817.55276953125,991.2976171875,818.97546953125,991.2976171875,820.5152695312499C991.2976171875,822.05496953125,990.4756171875,823.47776953125,989.1426171875,824.24676953125Z" fill="#F9FAFC" fill-opacity="1"/></g><g><path d="M414.75164843749997,492.61602968750003L387.2137484375,508.5121296875C384.54804843750003,510.0511296875,381.2637484375,510.0511296875,378.5980484375,508.5121296875L312.7952584375,470.5166296875C311.4614414375,469.7474296875,310.6396484375,468.3247296875,310.6396484375,466.7850296875C310.6396484375,465.2452296875,311.4614414375,463.8225296875,312.7952584375,463.0533296875L340.3225484375,447.1572296875C342.9883484375,445.6181616875,346.2726484375,445.6181616875,348.9383484375,447.1572296875L414.7406484375,485.1634296875C417.6056484375,486.8193296875,417.6116484375,490.9519296875,414.75164843749997,492.61602968750003Z" fill="#F9FAFC" fill-opacity="1"/></g><g><path d="M606.2248828125,603.16669140625L578.6868828125,619.06269140625C576.0218828125,620.60169140625,572.7368828125,620.60169140625,570.0718828125,619.06269140625L408.5261928125,525.78669140625C405.6644458125,524.12659140625,405.6644458125,519.99409140625,408.5261928125,518.33409140625L436.0534828125,502.43799140625C438.7191828125,500.89892340625,442.0034828125,500.89892340625,444.6692828125,502.43799140625L606.2148828125,595.70339140625C607.5498828125,596.47069140625,608.3728828124999,597.89229140625,608.3758828125,599.4319914062501C608.3778828125,600.97169140625,607.5578828125,602.39569140625,606.2248828125,603.16669140625Z" fill="#F9FAFC" fill-opacity="1"/></g><g><path d="M797.677984375,713.69598828125L770.150984375,729.59198828125C767.4849843750001,731.13098828125,764.200984375,731.13098828125,761.534984375,729.59198828125L599.989564375,636.32668828125C598.655777375,635.55738828125,597.833984375,634.13468828125,597.833984375,632.59498828125C597.833984375,631.05528828125,598.655777375,629.63258828125,599.989564375,628.86328828125L627.516884375,612.96725828125C630.182584375,611.42818828125,633.466884375,611.42818828125,636.132584375,612.96725828125L797.677984375,706.2434882812499C800.539984375,707.90348828125,800.539984375,712.03598828125,797.677984375,713.69598828125Z" fill="#F9FAFC" fill-opacity="1"/></g><g><path d="M931.7075390625,857.406451171875L904.1695390625,873.302451171875C901.5035390625001,874.841451171875,898.2195390625,874.841451171875,895.5535390625,873.302451171875L734.0081190625,780.026251171875C732.6743320625,779.256951171875,731.8525390625,777.834251171875,731.8525390625,776.294551171875C731.8525390625,774.754851171875,732.6743320625,773.332151171875,734.0081190625,772.562851171875L761.5462390625,756.666791171875C764.2119390625,755.127716171875,767.4962390625,755.127716171875,770.1619390625,756.666791171875L931.7075390625,849.9429511718749C933.0405390625,850.712251171875,933.8625390625,852.134951171875,933.8625390625,853.674651171875C933.8625390625,855.214451171875,933.0405390625,856.637451171875,931.7075390625,857.406451171875Z" fill="#F9FAFC" fill-opacity="1"/></g><g><path d="M357.3051015625,525.77573984375L329.7782015625,541.71483984375C327.11250156250003,543.25393984375,323.8282015625,543.25393984375,321.1625015625,541.71483984375L255.3597115625,503.71933984375C254.0259105625,502.95013984375,253.2041015625,501.52743984375,253.2041015625,499.98773984375C253.2041015625,498.44793984375,254.0259105625,497.02523984375,255.3597115625,496.25603984375L282.8870015625,480.32763984375C285.5528015625,478.78857184375,288.8371015625,478.78857184375,291.5028015625,480.32763984375L357.3051015625,518.33383984375C360.1551015625,519.99623984375,360.1551015625,524.11333984375,357.3051015625,525.77573984375Z" fill="#F9FAFC" fill-opacity="1"/></g><g><path d="M548.7683359375001,636.326359375L521.2513359375,652.222359375C518.5853359375,653.761359375,515.3013359375,653.761359375,512.6353359375,652.222359375L351.0906159375,558.946359375C348.2288989375,557.286259375,348.2288989375,553.153759375,351.0906159375,551.493759375L378.6071359375,535.597659375C381.2728359375,534.058591375,384.5571359375,534.058591375,387.2228359375,535.597659375L548.7683359375001,628.863059375C550.1023359375,629.632359375,550.9233359375,631.055059375,550.9233359375,632.594759375C550.9233359375,634.134559375,550.1023359375,635.557359375,548.7683359375001,636.326359375Z" fill="#F9FAFC" fill-opacity="1"/></g><g><path d="M740.2314375,746.855611328125L712.7154375,762.751611328125C710.0494375000001,764.290611328125,706.7654375,764.290611328125,704.0994375,762.751611328125L542.5540475,669.486511328125C541.2202635,668.717211328125,540.3984375,667.294511328125,540.3984375,665.754811328125C540.3984375,664.215111328125,541.2202305,662.792411328125,542.5540475,662.023111328125L570.0705375,646.180881328125C572.7363375,644.641811328125,576.0205375,644.641811328125,578.6863375,646.180881328125L740.2314375,739.446311328125C743.0444375,741.115311328125,743.0444375,745.186611328125,740.2314375,746.855611328125Z" fill="#F9FAFC" fill-opacity="1"/></g><g><path d="M761.5345078125,286.6672234375L761.5345078125,290.0058234375C761.5035078125,291.5124234375,760.6865078124999,292.8928234375,759.3805078125,293.6460234375L731.8537078125,309.5420234375C729.1879078125,311.08112343749997,725.9037078125,311.08112343749997,723.2379078125,309.5420234375L657.4244478125,271.5466334375C656.0896058125,270.7759634375,655.2682071625,269.3508734375,655.2705078125,267.80955343749997L655.2705078125,264.3740234375L761.5345078125,286.6672234375Z" fill="#F7BFBF" fill-opacity="1"/></g><g><path d="M704.0999375,319.859362109375L704.0999375,323.197962109375C704.0689375,324.704562109375,703.2519374999999,326.084962109375,701.9459375,326.838162109375L674.4191375,342.734162109375C671.7533375,344.27326210937497,668.4691375,344.27326210937497,665.8033375,342.734162109375L599.9898775,304.738772109375C598.6550355,303.968102109375,597.83363685,302.543012109375,597.8359375,301.00169210937497L597.8359375,297.566162109375L704.0999375,319.859362109375Z" fill="#F7CFA9" fill-opacity="1"/></g><g><path d="M646.6536484375,352.98714765625L646.6536484375,356.32574765625C646.6226484375,357.83234765625,645.8056484374999,359.21274765625,644.4996484375,359.96584765625L616.9728484375,375.86184765625C614.3070484375,377.40094765624997,611.0228484375,377.40094765624997,608.3570484375,375.86184765625L542.5435884375,337.86645765625C541.2087464375,337.09580765625,540.3873806475,335.67068765625,540.3896484375,334.12937765624997L540.3896484375,330.69384765625L646.6536484375,352.98714765625Z" fill="#C6F4B5" fill-opacity="1"/></g><g><path d="M589.2200546875,386.1575578125L589.2200546875,389.4961578125C589.1890546875,391.0027578125,588.3720546874999,392.3831578125,587.0660546875,393.1362578125L559.5392546875,409.0322578125C556.8734546875,410.57135781249997,553.5892546875,410.57135781249997,550.9234546875,409.0322578125L485.1099946875,371.0368678125C483.7751526875,370.2662178125,482.9537868975,368.8410978125,482.9560546875,367.29978781249997L482.9560546875,363.8642578125L589.2200546875,386.1575578125Z" fill="#B1E9EF" fill-opacity="1"/></g><g><path d="M531.773765625,419.317427734375L531.773765625,422.645327734375C531.745765625,424.155727734375,530.928765625,425.541127734375,529.620765625,426.296227734375L502.09296562500003,442.181527734375C499.427265625,443.72052773437497,496.142965625,443.72052773437497,493.477265625,442.181527734375L427.663735625,404.196817734375C426.325543625,403.424227734375,425.503652465,401.994137734375,425.5097984915,400.44895773437497L425.5097984915,397.013427734375L531.773765625,419.317427734375Z" fill="#F3CBF4" fill-opacity="1"/></g><g><path d="M759.3805546875,290.415044140625L731.8533546875,306.311144140625C729.1876546875,307.850244140625,725.9033546875,307.850244140625,723.2376546875,306.311144140625L657.4241346875,268.315744140625C656.0903476875,267.546444140625,655.2685546875,266.123744140625,655.2685546875,264.584044140625C655.2685546875,263.044244140625,656.0903476875,261.621644140625,657.4241346875,260.852344140625L684.9514546875,244.967034140625C687.6171546875,243.427976140625,690.9014546875,243.427976140625,693.5671546875,244.967034140625L759.3805546875,282.951744140625C760.7145546875,283.720944140625,761.5365546875,285.143644140625,761.5365546875,286.683344140625C761.5365546875,288.223144140625,760.7145546875,289.645844140625,759.3805546875,290.415044140625Z" fill="#FFD4D1" fill-opacity="1"/></g><g><path d="M701.934984375,323.58600039062503L674.418784375,339.471300390625C671.753084375,341.010400390625,668.468784375,341.010400390625,665.803084375,339.471300390625L599.989564375,301.475900390625C598.655777375,300.706600390625,597.833984375,299.283900390625,597.833984375,297.744200390625C597.833984375,296.204400390625,598.655777375,294.781800390625,599.989564375,294.012500390625L627.506084375,278.127200390625C630.171784375,276.588132390625,633.456084375,276.588132390625,636.121784375,278.127200390625L701.934984375,316.122600390625C703.268984375,316.891900390625,704.0909843750001,318.314600390625,704.0909843750001,319.854300390625C704.0909843750001,321.394100390625,703.268984375,322.816700390625,701.934984375,323.58600039062503Z" fill="#FFE6C4" fill-opacity="1"/></g><g><path d="M644.4899296875,356.745799609375L616.9628296875001,372.631099609375C614.2970296875,374.170199609375,611.0127296875,374.170199609375,608.3470296875,372.631099609375L542.5335396875,334.646399609375C541.1997226875,333.877199609375,540.3779296875,332.454499609375,540.3779296875,330.914699609375C540.3779296875,329.374999609375,541.1997226875,327.952299609375,542.5335396875,327.182999609375L570.0716296875,311.243899609375C572.7373296875,309.704831609375,576.0216296875,309.704831609375,578.6873296875,311.243899609375L644.4899296875,349.239299609375C645.8449296875,350.002799609375,646.6839296875,351.43729960937503,646.6839296875,352.992599609375C646.6839296875,354.547899609375,645.8449296875,355.982399609375,644.4899296875,356.745799609375Z" fill="#E0FAD9" fill-opacity="1"/></g><g><path d="M587.0551015625,389.862278515625L559.5390015625001,405.801378515625C556.8732015625,407.340478515625,553.5889015625,407.340478515625,550.9232015625,405.801378515625L485.1097115625,367.805978515625C483.7758945625,367.036678515625,482.9541015625,365.613978515625,482.9541015625,364.074278515625C482.9541015625,362.534478515625,483.7758945625,361.111878515625,485.1097115625,360.342578515625L512.6370015625,344.457278515625C515.3027015625,342.918210515625,518.5870015625,342.918210515625,521.2528015625,344.457278515625L587.0551015625,382.441978515625C589.8801015625,384.108778515625,589.8801015625,388.195378515625,587.0551015625,389.862278515625Z" fill="#D6F1F7" fill-opacity="1"/></g><g><path d="M529.610296875,423.07599062500003L502.104896875,438.961290625C499.439196875,440.500390625,496.154896875,440.500390625,493.489096875,438.961290625L427.675606875,400.955090625C424.813859875,399.295090625,424.813859875,395.162490625,427.675606875,393.502490625L455.192096875,377.617190625C457.857896875,376.078122625,461.142096875,376.078122625,463.807896875,377.617190625L529.610296875,415.612590625C530.944296875,416.381890625,531.766296875,417.804590625,531.766296875,419.344390625C531.766296875,420.884090625,530.944296875,422.306790625,529.610296875,423.07599062500003Z" fill="#FAE4FA" fill-opacity="1"/></g><g><path d="M828.6944687499999,168.362548828125L845.41976875,177.990648828125C852.53846875,182.104648828125,853.47546875,186.951048828125,847.30446875,190.472748828125C842.48236875,193.066448828125,836.77716875,193.45884882812499,831.64536875,191.549648828125L831.28996875,191.743548828125C835.59786875,194.791348828125,836.41636875,199.045348828125,830.36376875,202.513248828125C823.16966875,206.627248828125,813.21846875,205.657948828125,805.10886875,200.973148828125L788.48046875,191.377348828125L828.6944687499999,168.362548828125ZM819.78786875,182.47084882812499L825.00046875,185.475548828125C830.2990687500001,188.534148828125,834.61776875,188.760348828125,838.12866875,186.746348828125C841.35956875,184.883248828125,841.26266875,182.503148828125,837.54716875,180.349148828125L830.54686875,176.310558828125L819.78786875,182.47084882812499ZM802.27636875,192.475848828125L808.15666875,195.879048828125C814.35996875,199.465348828125,818.92626875,199.788448828125,822.74956875,197.591448828125C826.57276875,195.394448828125,826.38966875,192.648148828125,821.73716875,189.96654882812498L814.19836875,185.658648828125L802.27636875,192.475848828125Z" fill="#EDF0F4" fill-opacity="1"/></g><g><path d="M833.8750346875,207.17634453125C839.4860646875,203.94544453125,847.0571546875,204.07467453125,854.2620546875,208.25334453125L861.8008546875,212.63654453125L864.6008546875,211.03184453125C867.7564546875,209.22254453125,867.2394546875,207.19788453125,864.0839546875,205.37781453125C861.6041546875,203.75548453125,858.5086546875,203.38498453125,855.7159546875,204.37623453125L848.4248546875,200.16528453125C853.9066546875,197.42979753125,861.6607546875,197.17131453125,870.1795546875001,202.09305453125C877.1475546875,206.11014453125,880.0015546875,211.01034453125,872.0642546875,215.54434453125L851.0418546875,227.56334453125L843.7507546875,223.35244453125L847.7355546875,221.08004453125L847.3801546875,220.87534453125C842.9327546875,221.63444453125,838.3600546875,220.81134453125,834.4565046875,218.54914453125C828.4794146875,215.03824453125,827.9839846875,210.54724453125,833.8750346875,207.17634453125ZM853.9066546875,217.14904453125L857.1375546875,215.28594453125L851.1926546875,211.86114453125C847.7678546875,209.87954453125,844.4185546875,209.94414453125,842.0276546875,211.31194453125C839.1090146875,212.98124453125,840.1213546875,215.18904453125,842.7599546875,216.69674453125C846.0231546875,218.62454453125,850.8695546875,218.88304453125,853.9066546875,217.14904453125Z" fill="#EDF0F4" fill-opacity="1"/></g><g><path d="M902.6179578125,208.60888671875L910.3505578125,213.06753671875L867.9718778125,237.28858671875L860.2392578125,232.82988671875L902.6179578125,208.60888671875Z" fill="#EDF0F4" fill-opacity="1"/></g><g><path d="M884.8371015625,236.59919609375C890.4481215625,233.36829609375,898.0191515625,233.49752609375,905.2240515625,237.67619609375L912.7628515625,242.05939609375L915.5629515625,240.45469609375C918.7184515625,238.64539609375,918.2015515625,236.62073609375,915.0460515625,234.80066609375C912.5661515625,233.17833609375,909.4707515625,232.80785609375,906.6779515625,233.79908609375L899.3868515624999,229.58813609375C904.8686515625,226.85264909375,912.6227515625,226.59416609375,921.1416515625,231.51590609375C928.1095515625,235.53299609375,930.9635515625,240.43319609375,923.0263515624999,244.96719609375L902.0470515625,256.96469609375L894.7559515625,252.75369609375L898.7407515625,250.48129609375L898.3853515625,250.27669609375C893.9380515625,251.03569609375,889.3653115625,250.21259609375,885.4617615625,247.95039609375C879.4415415625,244.47179609375002,878.9461115625,239.97009609375,884.8371015625,236.59919609375ZM904.8687515625,246.62579609375L908.0996515625,244.76259609375L902.1763515625,241.24089609375C898.7515515625,239.25929609375,895.4022515625,239.32389609375,893.0113515625,240.69169609375C890.0927115625,242.36099609375,891.1050515625,244.56879609375,893.7436515625,246.07649609375C896.9853515625,248.01509609375,901.8316515625,248.30579609375,904.8687515625,246.62579609375Z" fill="#EDF0F4" fill-opacity="1"/></g><g><path d="M953.579871875,238.009765625L961.312471875,242.468415625L918.933791875,266.689465625L911.201171875,262.230765625L953.579871875,238.009765625Z" fill="#EDF0F4" fill-opacity="1"/></g><g><path d="M935.799015625,266.01077171875C941.410035625,262.77987171875,948.981065625,262.90910171875,956.185965625,267.08771171875003L963.724765625,271.47101171875L966.524865625,269.86631171875C969.680365625,268.05701171875,969.163465625,266.03232171875,966.007965625,264.21224171875C963.528065625,262.58992171875,960.432665625,262.21941171875,957.639865625,263.21067171875L950.3487656249999,258.99972171875C955.830565625,256.27499171875,963.584665625,256.00575171875,972.103565625,260.92748171875C979.071465625,264.94457171875,981.925465625,269.84481171875,973.9882656249999,274.37881171875L953.008965625,286.38701171875L945.717865625,282.16531171875L949.702665625,279.89291171875L949.347265625,279.68831171875C944.899965625,280.44731171875003,940.327225625,279.62421171875,936.423675625,277.36201171875C930.403395625,273.88341171875,929.908025625,269.39241171875,935.799015625,266.01077171875ZM955.830565625,275.98351171875L959.061465625,274.13111171875L953.116665625,270.70631171875C949.691965625,268.72471171875,946.342565625,268.78931171875,943.951665625,270.15711171875C941.033055625,271.82641171875,942.045365625,274.04501171875,944.683965625,275.54191171875C947.947265625,277.43741171875,952.793565625,277.72821171875,955.830665625,275.99421171875L955.830565625,275.98351171875Z" fill="#EDF0F4" fill-opacity="1"/></g><g><path d="M384.3385546875,354.817948046875L321.1955546875,391.284148046875L277.0398546875,416.775748046875L232.8841546875,391.284148046875L223.1914546875,385.66234804687497C199.4609146875,371.945948046875,199.4609146875,337.689948046875,223.1914546875,323.973648046875C256.5426546875,304.731148046875,297.6233546875,304.731148046875,330.9745546875,323.973648046875L384.3385546875,354.817948046875Z" fill="url(#master_svg2_4462_1205)" fill-opacity="1"/></g><g><path d="M277.0397234375,310.619228515625C295.7687234375,310.628988515625,314.1665234375,315.557158515625,330.3925234375,324.910578515625L382.1845234375,354.817978515625L320.6565234375,390.357878515625L277.0397234375,415.536978515625L233.4225234375,390.357878515625L223.7298234375,384.736178515625C200.7271434375,371.432378515625,200.7271434375,338.225078515625,223.7298234375,324.921378515625C239.9547234375,315.565078515625,258.35352343750003,310.636688515625,277.0828234375,310.629978515625M277.0828234375,309.553011382125C258.1784234375,309.558401485625,239.6079234375,314.535298515625,223.2344234375,323.984378515625C199.5038834375,337.700778515625,199.5038834375,371.956678515625,223.2344234375,385.673078515625L232.9271234375,391.294878515625L277.0828234375,416.786978515625L321.2385234375,391.294878515625L384.3815234375,354.82867851562503L330.9745234375,323.984378515625C314.6005234375,314.536218515625,296.0301234375,309.559387475625,277.1259234375,309.552978515625L277.0828234375,309.553011382125Z" fill="url(#master_svg3_4462_1252)" fill-opacity="1"/></g><g><path d="M384.3376015625,324.436590625L321.1946015625,360.891990625L277.0393015625,386.383390625L232.8837015625,360.891990625L223.1909015625,355.270190625C199.4584815625,341.55969062500003,199.4584815625,307.302690625,223.1909015625,293.592190625C256.5385015625,274.336420625,297.6264015625,274.336420625,330.9736015625,293.592190625L384.3376015625,324.436590625Z" fill="url(#master_svg4_4462_1285)" fill-opacity="1"/><path d="M384.3376015625,324.436590625L321.1946015625,360.891990625L277.0393015625,386.383390625L232.8837015625,360.891990625L223.1909015625,355.270190625C199.4584815625,341.55969062500003,199.4584815625,307.302690625,223.1909015625,293.592190625C256.5385015625,274.336420625,297.6264015625,274.336420625,330.9736015625,293.592190625L384.3376015625,324.436590625Z" fill="url(#master_svg5_4462_1286)" fill-opacity="1"/></g><g><path d="M277.040246875,280.227070859375C295.769146875,280.236800859375,314.16754687499997,285.164960859375,330.39354687499997,294.518430859375L382.184546875,324.436630859375L320.657546875,359.976530859375L277.040246875,385.166630859375L233.422946875,359.976530859375L223.730246875,354.365530859375C200.715166875,341.064230859375,200.715166875,307.841330859375,223.730246875,294.540030859375C239.955246875,285.183690859375,258.353946875,280.255340859375,277.083246875,280.248630859375M277.083246875,279.171663725875C258.177346875,279.175739169375,239.60554687500002,284.156720859375,223.234846875,293.613830859375C199.502426875,307.324330859375,199.502426875,341.581330859375,223.234846875,355.291730859375L232.927646875,360.913530859375L277.083246875,386.405630859375L321.238546875,360.913530859375L384.381546875,324.458130859375L330.974546875,293.613730859375C314.588546875,284.152570859375,296.01694687500003,279.171630859375,277.12634687499997,279.171630859375L277.083246875,279.171663725875Z" fill="url(#master_svg6_4462_1214)" fill-opacity="1"/></g><g style="opacity:0.800000011920929;" filter="url(#master_svg7_4488_0526)"><path d="M384.3385546875,294.01203984375L321.1955546875,330.47823984375L277.0398546875,355.96983984375L232.8841546875,330.47823984375L223.1914546875,324.85643984374997C199.4609146875,311.14003984375,199.4609146875,276.88403984375,223.1914546875,263.16773984375C256.5426546875,243.92523984375,297.6233546875,243.92523984375,330.9745546875,263.16773984375L384.3385546875,294.01203984375Z" fill="url(#master_svg8_4462_1217)" fill-opacity="1"/></g><g><path d="M277.0398546875,249.856612265625C295.7688546875,249.866352265625,314.1665546875,254.794522265625,330.3925546875,264.147972265625L382.1845546875,294.01227226562503L320.6575546875,329.552272265625L277.0398546875,354.731572265625L233.4226546875,329.552272265625L223.7299546875,323.930472265625C200.7272746875,310.626672265625,200.7272746875,277.419372265625,223.7299546875,264.115672265625C239.9619546875,254.773532265625,258.3446546875,249.856612265625,277.0398546875,249.856612265625ZM277.0398546875,248.779643765625C258.1354546875,248.785033865625,239.5649546875,253.761932265625,223.1914546875,263.210972265625C199.4609146875,276.927372265625,199.4609146875,311.183372265625,223.1914546875,324.899772265625L232.8841546875,330.521472265625L277.0398546875,356.013572265625L321.1955546875,330.521472265625L384.3385546875,294.01227226562503L330.9315546875,263.167972265625C314.5575546875,253.719802265625,295.9871546875,248.742964795625,277.0829546875,248.736572265625L277.0398546875,248.779643765625Z" fill="url(#master_svg9_4462_1266)" fill-opacity="1"/></g><g><path d="M612.5255859375,146.791L547.7455859375,23.6933C539.4205859374999,7.84033,524.2995859375001,-0.840035,509.5455859375,0.0753878L509.5455859375,0L487.86658593749996,2.61703C481.9225859375,2.92024,476.1635859375,4.77697,471.1625859375,8.00187L364.1655859375,76.5832C345.8140169375,88.3114,340.9891859375,115.236,353.2450859375,136.463L422.2894859375,256.006C430.3021859375,269.877,444.1088859375,277.545,457.7215859375,277.287L457.7215859375,277.492L481.1345859375,274.358L481.1345859375,274.218C486.5625859375,273.77,491.8005859375,272.019,496.40658593750004,269.113L599.6445859375,204.355C617.5655859374999,193.154,623.3805859375,167.425,612.5255859375,146.791Z" fill="url(#master_svga_4470_0777)" fill-opacity="1"/><path d="M612.5255859375,146.791L547.7455859375,23.6933C539.4205859374999,7.84033,524.2995859375001,-0.840035,509.5455859375,0.0753878L509.5455859375,0L487.86658593749996,2.61703C481.9225859375,2.92024,476.1635859375,4.77697,471.1625859375,8.00187L364.1655859375,76.5832C345.8140169375,88.3114,340.9891859375,115.236,353.2450859375,136.463L422.2894859375,256.006C430.3021859375,269.877,444.1088859375,277.545,457.7215859375,277.287L457.7215859375,277.492L481.1345859375,274.358L481.1345859375,274.218C486.5625859375,273.77,491.8005859375,272.019,496.40658593750004,269.113L599.6445859375,204.355C617.5655859374999,193.154,623.3805859375,167.425,612.5255859375,146.791Z" fill="url(#master_svgb_4470_0778)" fill-opacity="1"/></g><g><path d="M599.6451406250001,204.39706640625L496.407140625,269.15506640625C478.690140625,280.27006640625,455.126540625,273.15106640625,443.635340625,253.13006640625L375.172470625,133.70506640625C363.002750625,112.48906640625,367.913718625,85.65086640625,386.25444062500003,73.90116640625L493.187140625,5.44904640625C511.753140625,-6.39760359375,536.265140625,1.78735640625,547.746140625,23.67136640625L612.525140625,146.79006640625C623.381140625,167.42506640625,617.566140625,193.15406640625,599.6451406250001,204.39706640625Z" fill="url(#master_svgc_4462_1248)" fill-opacity="1"/></g><g><path d="M538.146453125,169.89203125L507.808353125,189.01903125C482.876553125,204.75303125,449.652053125,194.40403125,433.497533125,165.72403125C417.106073125,136.64583125000001,424.214073125,99.74893125,449.652053125,83.54053125L480.561053125,63.83203125L538.146453125,169.89203125Z" fill="#FFFFFF" fill-opacity="1"/></g><g><path d="M538.1460625,169.89203125L583.2600625,180.24103125L526.9025625,74.91403125L480.5390625,63.83203125L538.1460625,169.89203125Z" fill="#8DCBFF" fill-opacity="1"/></g><g><path d="M482.6391625,65.44749125L526.1917625,75.84023125L581.1920625,178.66903125L538.8568625,168.97603125L482.6391625,65.47979125M480.5390625,63.86433895L538.1460625,169.92403124999998L583.2600625,180.27403125L526.9456625,74.91403125L480.6360186,63.83203125L480.5390625,63.86433895Z" fill="url(#master_svgd_4462_1256)" fill-opacity="1"/></g></g></svg>