<svg xmlns="http://www.w3.org/2000/svg" xmlns:xlink="http://www.w3.org/1999/xlink" fill="none" version="1.1" width="16" height="16" viewBox="0 0 16 16"><g><g><path d="M4.697283125,1.98106225Q3.329503125,3.34884125,3.329503125,5.28318125L3.329503125,5.28319125Q3.329543125,7.32760125,2.827116125,8.79463125Q2.5448711250000002,9.61876125,1.890108125,10.65955125Q1.3750731250000001,11.47828125,1.271260125,11.92688125Q1.237628125,12.07218125,1.2621781250000002,12.21938125Q1.286727125,12.36648125,1.365720125,12.49308125Q1.444713125,12.61968125,1.566123125,12.70638125Q1.687532125,12.79298125,1.832876125,12.82668125Q1.916312425,12.84598125,2.001953125,12.84598125L13.996853125,12.84598125Q14.070753125,12.84598125,14.143153125,12.83158125Q14.215653125,12.81718125,14.283853125,12.78888125Q14.352053125,12.76058125,14.413553125,12.71958125Q14.474953125,12.67848125,14.527153125,12.62628125Q14.579353125,12.57408125,14.620453125,12.51268125Q14.661453125,12.45118125,14.689753125,12.38298125Q14.718053125,12.31468125,14.732453125,12.24228125Q14.746853125,12.16978125,14.746853125,12.09598125Q14.746853125,12.01048125,14.727553125,11.92708125Q14.623253125,11.47568125,14.109753125,10.68634125Q13.457753125,9.68408125,13.175653125,8.85811125Q12.669453125,7.37615125,12.669453125,5.22068125Q12.669453125,3.28743125,11.295633125,1.94394125Q9.934953125,0.61328125,7.999393125,0.61328125Q6.065063125,0.61328125,4.697283125,1.98106225ZM4.8295031250000005,5.28318125L4.8295031250000005,5.28316125Q4.8295031250000005,3.97016125,5.757943125000001,3.04172125Q6.686383125,2.11328125,7.999393125,2.11328125Q9.323413125,2.11328125,10.246873125,3.0163712499999997Q11.169433125,3.91857125,11.169433125,5.22072125Q11.169503125,7.62527125,11.756183125,9.342941249999999Q12.075153125,10.27674125,12.750853125,11.34596125L3.229783125,11.34596125Q3.923503125,10.22288125,4.246203125,9.280631249999999Q4.829543125,7.57733125,4.8295031250000005,5.28318125Z" fill-rule="evenodd" fill="#333333" fill-opacity="1"/></g><g><path d="M5.878947875,14.5112553125Q5.779296875,14.3377663125,5.779296875,14.1376953125Q5.779296875,14.0638268125,5.793707875,13.9913773125Q5.808118875,13.9189283125,5.836386875,13.8506823125Q5.864655875,13.7824373125,5.905694875,13.7210173125Q5.946733875,13.6595983125,5.998966875,13.6073653125Q6.051199875,13.5551323125,6.112618875,13.5140933125Q6.174038875,13.4730543125,6.242283875,13.4447853125Q6.310529875,13.4165173125,6.382978875,13.402106312499999Q6.455428375,13.3876953125,6.529296875,13.3876953125Q6.628247675,13.3876953125,6.723812875,13.4133583125Q6.819377875,13.4390223125,6.905016875,13.4885923125Q6.990655875,13.5381623125,7.060507875,13.6082473125Q7.130359875,13.6783323125,7.179645875,13.7641353125Q7.304860875,13.9821303125,7.522858875,14.1073492125Q7.999296875,14.3845833125,8.472076874999999,14.1094633125Q8.693736874999999,13.9821303125,8.818946875,13.7641353125Q8.868236875000001,13.6783323125,8.938086875,13.6082473125Q9.007936875,13.5381623125,9.093576875,13.4885923125Q9.179216875,13.4390223125,9.274776875,13.4133583125Q9.370346875,13.3876953125,9.469296875,13.3876953125Q9.543166875,13.3876953125,9.615616875,13.402106312499999Q9.688066875,13.4165173125,9.756306875,13.4447853125Q9.824556874999999,13.4730543125,9.885976875,13.5140933125Q9.947396874999999,13.5551323125,9.999626875,13.6073653125Q10.051856875,13.6595983125,10.092896875000001,13.7210173125Q10.133936875,13.7824373125,10.162206874999999,13.8506823125Q10.190476875,13.9189283125,10.204886875,13.9913773125Q10.219296875,14.0638268125,10.219296875,14.1376953125Q10.219296875,14.3377663125,10.119646875,14.5112553125Q9.792466875,15.0808583125,9.226516875,15.405925312499999Q8.657566875,15.7370153125,7.999296875,15.7370153125Q7.341026875,15.7370153125,6.775734875,15.4080453125Q6.206127875,15.0808583125,5.878947875,14.5112553125Z" fill-rule="evenodd" fill="#333333" fill-opacity="1"/></g></g></svg>