<svg xmlns="http://www.w3.org/2000/svg" xmlns:xlink="http://www.w3.org/1999/xlink" fill="none" version="1.1" width="16" height="16" viewBox="0 0 16 16"><g><g><path d="M3,3.85L13,3.85Q13.064,3.85,13.1268,3.86249Q13.1896,3.8749789999999997,13.2487,3.899478Q13.3079,3.923978,13.3611,3.959545Q13.4143,3.9951119999999998,13.4596,4.040381Q13.5049,4.085649,13.5405,4.138879Q13.576,4.19211,13.6005,4.251256Q13.625,4.310402,13.6375,4.373191Q13.65,4.4359806,13.65,4.5Q13.65,4.5640194,13.6375,4.626809Q13.625,4.689598,13.6005,4.748744Q13.576,4.80789,13.5405,4.861121Q13.5049,4.914351,13.4596,4.959619Q13.4143,5.004888,13.3611,5.040455Q13.3079,5.076022,13.2487,5.100522Q13.1896,5.125021,13.1268,5.13751Q13.064,5.15,13,5.15L3,5.15Q2.9359806,5.15,2.873191,5.13751Q2.810402,5.125021,2.751256,5.100522Q2.69211,5.076022,2.638879,5.040455Q2.585649,5.004888,2.540381,4.959619Q2.4951119999999998,4.914351,2.459545,4.861121Q2.423978,4.80789,2.399478,4.748744Q2.3749789999999997,4.689598,2.36249,4.626809Q2.35,4.5640194,2.35,4.5Q2.35,4.4359806,2.36249,4.373191Q2.3749789999999997,4.310402,2.399478,4.251256Q2.423978,4.19211,2.459545,4.138879Q2.4951119999999998,4.085649,2.540381,4.040381Q2.585649,3.9951119999999998,2.638879,3.959545Q2.69211,3.923978,2.751256,3.899478Q2.810402,3.8749789999999997,2.873191,3.86249Q2.9359806,3.85,3,3.85ZM4.6674500000000005,8.65L11.33333,8.65Q11.39735,8.65,11.46014,8.637509999999999Q11.52293,8.62502,11.58208,8.60052Q11.64122,8.57602,11.69445,8.54045Q11.74768,8.50489,11.79295,8.459620000000001Q11.83822,8.41435,11.87379,8.36112Q11.90936,8.30789,11.93386,8.24874Q11.95835,8.1896,11.97084,8.126809999999999Q11.98333,8.06402,11.98333,8Q11.98333,7.93598,11.97084,7.87319Q11.95835,7.8104,11.93386,7.75126Q11.90936,7.69211,11.87379,7.63888Q11.83822,7.585649999999999,11.79295,7.54038Q11.74768,7.49511,11.69445,7.4595400000000005Q11.64122,7.42398,11.58208,7.3994800000000005Q11.52293,7.37498,11.46014,7.36249Q11.39735,7.35,11.33333,7.35L4.66667,7.35Q4.60265,7.35,4.53986,7.36249Q4.47707,7.37498,4.4179200000000005,7.3994800000000005Q4.35878,7.42398,4.30555,7.4595400000000005Q4.25232,7.49511,4.20705,7.54038Q4.16178,7.585649999999999,4.12621,7.63888Q4.0906400000000005,7.69211,4.06615,7.75126Q4.04165,7.8104,4.02916,7.87319Q4.0166699999999995,7.93598,4.0166699999999995,8Q4.0166699999999995,8.06402,4.02916,8.126809999999999Q4.04165,8.1896,4.06615,8.24874Q4.0906400000000005,8.30789,4.12621,8.36112Q4.16178,8.41435,4.20705,8.459620000000001Q4.25232,8.50489,4.30555,8.54045Q4.35878,8.57602,4.4179200000000005,8.60052Q4.47707,8.62502,4.53986,8.637509999999999Q4.60265,8.65,4.66667,8.65L4.6674500000000005,8.65ZM6.33333,10.85Q6.26931,10.85,6.206519999999999,10.862490000000001Q6.14374,10.87498,6.08459,10.89948Q6.02544,10.92398,5.9722100000000005,10.95954Q5.9189799999999995,10.99511,5.87371,11.040379999999999Q5.82845,11.085650000000001,5.79288,11.13888Q5.75731,11.19211,5.732810000000001,11.251249999999999Q5.70831,11.3104,5.695819999999999,11.373190000000001Q5.68333,11.43598,5.68333,11.5Q5.68333,11.56402,5.695819999999999,11.626809999999999Q5.70831,11.6896,5.732810000000001,11.74874Q5.75731,11.80789,5.79288,11.86112Q5.82845,11.914349999999999,5.87371,11.959620000000001Q5.9189799999999995,12.00489,5.9722100000000005,12.04045Q6.02544,12.07602,6.08459,12.10052Q6.14374,12.12502,6.206519999999999,12.137509999999999Q6.26931,12.15,6.33333,12.15L6.33445,12.15L9.66667,12.15Q9.73069,12.15,9.79347,12.137509999999999Q9.856259999999999,12.12502,9.91541,12.10052Q9.97456,12.07602,10.02779,12.04045Q10.081019999999999,12.00489,10.126290000000001,11.959620000000001Q10.17155,11.914349999999999,10.20712,11.86112Q10.24269,11.80789,10.26719,11.74874Q10.29169,11.6896,10.304179999999999,11.626809999999999Q10.31667,11.56402,10.31667,11.5Q10.31667,11.43598,10.304179999999999,11.373190000000001Q10.29169,11.3104,10.26719,11.25126Q10.24269,11.19211,10.20712,11.13888Q10.17156,11.085650000000001,10.126290000000001,11.040379999999999Q10.081019999999999,10.99511,10.02779,10.95954Q9.97456,10.92398,9.91541,10.89948Q9.856259999999999,10.87498,9.79347,10.862490000000001Q9.73069,10.85,9.66667,10.85L6.33333,10.85L6.33333,10.85Z" fill-rule="evenodd" fill="#666666" fill-opacity="1"/></g></g></svg>