<svg xmlns="http://www.w3.org/2000/svg" xmlns:xlink="http://www.w3.org/1999/xlink" fill="none" version="1.1" width="16" height="16" viewBox="0 0 16 16"><defs><clipPath id="master_svg0_6289_07505"><rect x="0" y="0" width="16" height="16" rx="0"/></clipPath></defs><g clip-path="url(#master_svg0_6289_07505)"><g><path d="M11.58199,12.4226975L8.006260000000001,8.846977500000001L4.43051,12.4227175C4.3179929999999995,12.5352375,4.16538,12.5984575,4.00625,12.5984575C3.84712,12.5984575,3.694508,12.5352375,3.581987,12.4227175C3.469465,12.3101975,3.406250834465,12.1575875,3.406250834465,11.9984575C3.406250834465,11.8393275,3.469465,11.6867075,3.581987,11.5741875L3.581987,11.5741875L7.15773,7.9984475L3.5820819999999998,4.4227975C3.4694641,4.3101795,3.40625,4.1575675,3.40625,3.9984375C3.40625,3.8393075,3.4694641,3.6866955,3.581986,3.5741735C3.694508,3.4616516,3.84712,3.3984375,4.00625,3.3984375C4.16538,3.3984375,4.317992,3.4616516,4.43051,3.5741735L8.006260000000001,7.1499175L11.58183,3.5743465C11.6937,3.4624819000000002,11.84495,3.399337828,12.00293,3.3984640837L12.00625,3.3984549642C12.16269,3.3984549642,12.31294,3.459556,12.42499,3.5687355C12.42499,3.5687355,12.43051,3.5741905,12.43051,3.5741905C12.54304,3.6867125,12.60625,3.8393255,12.60625,3.9984545000000002C12.60625,4.1575845000000005,12.54304,4.3101975,12.43051,4.4227175L12.43051,4.4227175L8.854790000000001,7.9984475L12.43051,11.5741775C12.54304,11.6866975,12.60625,11.8393075,12.60625,11.9984375C12.60625,12.1575675,12.54303,12.3101775,12.43051,12.4226975C12.31799,12.5352175,12.16538,12.5984375,12.00625,12.5984375C11.84712,12.5984375,11.69451,12.5352275,11.58199,12.4226975Z" fill-rule="evenodd" fill="#333333" fill-opacity="1"/></g></g></svg>