<svg xmlns="http://www.w3.org/2000/svg" xmlns:xlink="http://www.w3.org/1999/xlink" fill="none" version="1.1" width="16" height="16" viewBox="0 0 16 16"><defs><clipPath id="master_svg0_6370_29490"><rect x="0" y="0" width="16" height="16" rx="0"/></clipPath></defs><g clip-path="url(#master_svg0_6370_29490)"><g><path d="M13.21425,3.33254875L13.21425,10.78254875L13.99795,10.78254875Q14.50185,10.78254875,14.85825,11.13890875Q15.21455,11.49521875,15.21455,11.99921875L15.21455,12.66591875Q15.21455,13.44601875,14.66295,13.99761875Q14.11135,14.54921875,13.33125,14.54921875L5.33125,14.54921875Q3.44792,14.54921875,3.44792,12.66591875L3.44792,5.88254875L1.99792,5.88254875Q1.493957,5.88254875,1.137603,5.52619875Q0.78125,5.16984875,0.78125,4.665888750000001L0.78125,3.33254875Q0.78125,2.55244875,1.332866,2.00083475Q1.88448,1.4492186903954,2.66458,1.44921875L11.33095,1.44921875Q13.21425,1.4492188096046,13.21425,3.33254875ZM4.5479199999999995,3.33254875Q4.5479199999999995,2.90686875,4.38367,2.54921875L11.33095,2.54921875Q12.11425,2.54921875,12.11425,3.33254875L12.11425,10.78254875L7.33125,10.78254875Q6.82729,10.78254875,6.47094,11.13890875Q6.11458,11.49521875,6.11458,11.99921875L6.11458,12.66591875Q6.11458,13.44921875,5.33125,13.44921875Q4.5479199999999995,13.44921875,4.5479199999999995,12.66591875L4.5479199999999995,3.33254875ZM9.99775,4.78252875L6.66426,4.78252875C6.3605,4.78252875,6.11426,5.02877875,6.11426,5.33252875C6.11426,5.63628875,6.3605,5.88252875,6.66426,5.88252875L9.99775,5.88252875C10.30151,5.88252875,10.54775,5.63628875,10.54775,5.33252875C10.54775,5.02877875,10.30151,4.78252875,9.99775,4.78252875ZM9.99775,7.44921875L6.66426,7.44921875C6.3605,7.44921875,6.11426,7.69545875,6.11426,7.99921875C6.11426,8.302978750000001,6.3605,8.54921875,6.66426,8.54921875L9.99775,8.54921875C10.30151,8.54921875,10.54775,8.302978750000001,10.54775,7.99921875C10.54775,7.69545875,10.30151,7.44921875,9.99775,7.44921875Z" fill-rule="evenodd" fill="#999999" fill-opacity="1"/></g></g></svg>