<svg xmlns="http://www.w3.org/2000/svg" xmlns:xlink="http://www.w3.org/1999/xlink" fill="none" version="1.1" width="16" height="16" viewBox="0 0 16 16"><defs><clipPath id="master_svg0_6289_07362"><rect x="0" y="0" width="16" height="16" rx="0"/></clipPath></defs><g clip-path="url(#master_svg0_6289_07362)"><g><path d="M6.81097,1.31363Q7.94333,0.6848890000000001,9.08099,1.3166L12.8635,3.45897C12.9735,3.52129,13.0651,3.61164,13.1289,3.72084C13.2247,3.88482,13.2514,4.08015,13.2032,4.26384C13.155,4.44754,13.0358,4.60456,12.8718,4.70036L8.30454,7.36851C8.08138,7.49888,7.80528,7.49888,7.58212,7.36851L3.01488,4.70036C2.9056800000000003,4.63657,2.8153300000000003,4.545,2.7530099999999997,4.43496C2.5581,4.09084,2.6790599999999998,3.65387,3.02318,3.45897L6.80568,1.316599L6.81097,1.31363ZM1.43770575,6.37349L1.437705809,10.71659Q1.422011,12.0704,2.60334,12.7343L6.36338,14.904C6.70593,15.1017,7.14385,14.9842,7.34151,14.6417C7.40431,14.5329,7.43736,14.4094,7.43736,14.2838L7.43736,9.0103C7.43736,8.75446,7.30087,8.518049999999999,7.0793,8.390139999999999L2.51181,5.75333C2.169303,5.5556,1.731357,5.67297,1.5336292,6.01547C1.4707885,6.12433,1.43770575,6.2478,1.43770575,6.37349ZM13.4126,12.7303Q14.577,12.0583,14.5554,10.71608L14.5712,6.3761C14.5726,5.98062,14.2532,5.65885,13.8577,5.65741C13.7311,5.65695,13.6067,5.69005,13.4971,5.75333L8.9296,8.390139999999999C8.70803,8.518049999999999,8.57153,8.75446,8.57153,9.0103L8.57153,14.2838C8.57153,14.6793,8.892140000000001,14.9999,9.28762,14.9999C9.413260000000001,14.9999,9.53669,14.9668,9.64551,14.904L13.4126,12.7303Z" fill-rule="evenodd" fill="#999999" fill-opacity="1"/></g></g></svg>