<svg xmlns="http://www.w3.org/2000/svg" xmlns:xlink="http://www.w3.org/1999/xlink" fill="none" version="1.1" width="16" height="16" viewBox="0 0 16 16"><g><g><path d="M12.0752,7.124Q13.083,6.11618,13.083,4.690910000000001Q13.083,3.26564,12.0752,2.2578199999999997Q11.0674,1.25,9.64208,1.25Q8.216809999999999,1.25,7.20899,2.2578199999999997Q6.20117,3.26564,6.20117,4.690910000000001Q6.20117,6.11618,7.20899,7.124Q8.216809999999999,8.131820000000001,9.64208,8.131820000000001Q11.0674,8.131820000000001,12.0752,7.124ZM5.65697,8.13181Q6.27246,8.13181,6.79182,7.89971Q6.69844,7.81565,6.60785,7.72506Q5.35107,6.46829,5.35107,4.69093Q5.35107,3.51593,5.90035,2.56845Q5.7806,2.55908,5.65697,2.55908Q4.50282,2.55908,3.68671,3.37519Q2.87061,4.1913,2.87061,5.34545Q2.87061,6.4996,3.68671,7.3157Q4.50282,8.13181,5.65697,8.13181ZM4.91504,14.75C4.5008300000000006,14.75,4.165039999999999,14.4142,4.165039999999999,14Q4.165039999999999,11.7312,5.7693,10.12696Q7.37355,8.52271,9.64231,8.52271Q11.9111,8.52271,13.5153,10.12696Q15.1196,11.7312,15.1196,14C15.1196,14.4142,14.7838,14.75,14.3696,14.75L4.91504,14.75ZM5.16816,9.52595Q5.62194,9.07217,6.12246,8.72946Q5.88695,8.70837,5.64217,8.70837Q3.54873,8.70837,2.13278,10.25033Q0.716843,11.7923,0.894887,13.8781C0.9280124,14.2662,1.252682,14.5644,1.6421700000000001,14.5644L3.41249,14.5644Q3.31494,14.3024,3.31494,14Q3.31494,11.3792,5.16816,9.52595Z" fill-rule="evenodd" fill="#999999" fill-opacity="1"/></g></g></svg>