<svg xmlns="http://www.w3.org/2000/svg" xmlns:xlink="http://www.w3.org/1999/xlink" fill="none" version="1.1" width="16" height="16" viewBox="0 0 16 16"><g><g><path d="M4.103125,14.5C2.7776449999999997,14.5,1.703125,13.4255,1.703125,12.1L1.703125,3.9C1.703125,2.5745199999999997,2.7776449999999997,1.5,4.103125,1.5L11.903125,1.5C13.228625,1.5,14.303125,2.57451,14.303125,3.89998L14.303225,12.1C14.303225,13.4255,13.228725,14.5,11.903225,14.5L4.103125,14.5ZM6.198245,5.45259L8.006245,9.0686L9.814315,5.45247C9.907485,5.26614,10.097925,5.14844,10.306245,5.14844C10.610005,5.14844,10.856255,5.39468,10.856255,5.69844C10.856255,5.78382,10.836375,5.86803,10.798185,5.94441L8.498185,10.5444C8.444965,10.65084,8.358654999999999,10.73715,8.252215,10.79037C7.980525,10.92622,7.650155,10.81609,7.514315,10.5444L5.214315,5.94441C5.176125,5.86803,5.156245,5.78382,5.156245,5.69844C5.156245,5.39468,5.402495,5.14844,5.706255,5.14844C5.914575,5.14844,6.105015,5.26614,6.198245,5.45259Z" fill-rule="evenodd" fill="#999999" fill-opacity="1"/></g></g></svg>