<svg xmlns="http://www.w3.org/2000/svg" xmlns:xlink="http://www.w3.org/1999/xlink" fill="none" version="1.1" width="6.8833335638046265" height="3.966666579246521" viewBox="0 0 6.8833335638046265 3.966666579246521"><g><path d="M0.1537690357627869,0.8962310357627868Q0.07992603576278684,0.8223890357627869,0.03996303576278687,0.7259090357627869Q3.5762786843029915e-8,0.6294290357627869,3.5762786843029915e-8,0.5250000357627869Q3.5762786843029915e-8,0.4732920357627869,0.010088035762786829,0.42257803576278685Q0.020176035762786815,0.3718630357627869,0.03996303576278687,0.32409103576278686Q0.05975103576278684,0.2763190357627868,0.08847803576278684,0.23332603576278688Q0.11720603576278688,0.19033203576278684,0.1537690357627869,0.1537690357627869Q0.19033203576278684,0.11720603576278688,0.23332603576278688,0.08847803576278684Q0.2763190357627868,0.05975103576278684,0.32409103576278686,0.03996303576278687Q0.3718630357627869,0.020176035762786815,0.42257803576278685,0.010088035762786829Q0.4732920357627869,3.5762786843029915e-8,0.5250000357627869,3.5762786843029915e-8Q0.6294290357627869,3.5762786843029915e-8,0.7259090357627869,0.03996303576278687Q0.8223890357627869,0.07992603576278684,0.8962310357627868,0.1537690357627869L3.4416700357627867,2.6992000357627868L5.987100035762787,0.1537690357627869Q6.060940035762787,0.07992603576278684,6.157420035762787,0.03996303576278687Q6.253900035762787,3.5762786843029915e-8,6.358330035762787,3.5762786843029915e-8Q6.410040035762787,3.5762786843029915e-8,6.460760035762787,0.010088035762786829Q6.511470035762787,0.020176035762786815,6.5592400357627865,0.03996303576278687Q6.607010035762787,0.05975103576278684,6.6500100357627865,0.08847803576278684Q6.693000035762787,0.11720603576278688,6.729560035762787,0.1537690357627869Q6.766130035762787,0.19033203576278684,6.794850035762787,0.23332603576278688Q6.823580035762787,0.2763190357627868,6.843370035762787,0.32409103576278686Q6.863160035762787,0.3718630357627869,6.873250035762787,0.42257803576278685Q6.8833300357627865,0.4732920357627869,6.8833300357627865,0.5250000357627869Q6.8833300357627865,0.6294290357627869,6.843370035762787,0.7259090357627869Q6.803410035762787,0.8223890357627869,6.729560035762787,0.8962310357627868L6.729140035762787,0.8966560357627869L3.812900035762787,3.812900035762787Q3.7763300357627867,3.849460035762787,3.733340035762787,3.878190035762787Q3.690350035762787,3.906920035762787,3.642570035762787,3.926700035762787Q3.5948000357627867,3.946490035762787,3.5440900357627867,3.9565800357627867Q3.493370035762787,3.9666700357627867,3.4416700357627867,3.9666700357627867Q3.389960035762787,3.9666700357627867,3.3392400357627867,3.9565800357627867Q3.2885300357627867,3.946490035762787,3.240760035762787,3.926700035762787Q3.192990035762787,3.906920035762787,3.149990035762787,3.878190035762787Q3.1070000357627867,3.849460035762787,3.070440035762787,3.812900035762787L0.1537690357627869,0.8962310357627868L0.1537690357627869,0.8962310357627868Z" fill-rule="evenodd" fill="#BFBFBF" fill-opacity="1"/></g></svg>