<svg xmlns="http://www.w3.org/2000/svg" xmlns:xlink="http://www.w3.org/1999/xlink" fill="none" version="1.1" width="16" height="16" viewBox="0 0 16 16"><defs><clipPath id="master_svg0_6301_21618"><rect x="16" y="16" width="16" height="16" rx="0"/></clipPath></defs><g transform="matrix(-1,0,0,-1,32,32)" clip-path="url(#master_svg0_6301_21618)"><g transform="matrix(-1,0,0,-1,59,59)"><path d="M36.5,28.9Q36.4409,28.9,36.38295,28.911529Q36.32499,28.923058,36.27039,28.945672Q36.21579,28.968287,36.16666,29.001118Q36.11752,29.03395,36.075739999999996,29.075736Q36.03395,29.117522,36.00112,29.166657999999998Q35.968289999999996,29.215793,35.94567,29.27039Q35.92306,29.324986,35.91153,29.382946Q35.9,29.4409052,35.9,29.5Q35.9,29.5590948,35.91153,29.617054Q35.92306,29.675014,35.94567,29.72961Q35.968289999999996,29.784207,36.00112,29.833342000000002Q36.03395,29.882478,36.075739999999996,29.924264Q36.11752,29.96605,36.16666,29.998882Q36.21579,30.031713,36.27039,30.054328Q36.32499,30.076942,36.38295,30.088471Q36.4409,30.1,36.5,30.1L39.05151,30.1L35.40942,33.74223L35.40922,33.74243Q35.32484,33.82682,35.27917,33.93708Q35.2335,34.04734,35.2335,34.16669Q35.2335,34.22578,35.24502,34.28374Q35.25655,34.3417,35.27917,34.3963Q35.30178,34.45089,35.33461,34.50003Q35.36745,34.54916,35.40923,34.59095Q35.45102,34.63274,35.50015,34.66557Q35.54929,34.6984,35.603880000000004,34.72101Q35.65848,34.743629999999996,35.71644,34.755160000000004Q35.7744,34.76669,35.8335,34.76669Q35.95285,34.76669,36.06311,34.72101Q36.17338,34.67534,36.25777,34.59094L39.9,30.94857L39.9,33.5Q39.9,33.55909,39.911500000000004,33.61705Q39.9231,33.67501,39.9457,33.72961Q39.9683,33.78421,40.0011,33.83334Q40.0339,33.88248,40.0757,33.924260000000004Q40.1175,33.96605,40.1667,33.99888Q40.2158,34.031710000000004,40.2704,34.05433Q40.325,34.07694,40.3829,34.08847Q40.4409,34.1,40.5,34.1Q40.5591,34.1,40.6171,34.08847Q40.675,34.07694,40.7296,34.05433Q40.7842,34.031710000000004,40.8333,33.99888Q40.8825,33.96605,40.9243,33.924260000000004Q40.966,33.88248,40.9989,33.83334Q41.0317,33.78421,41.0543,33.72961Q41.0769,33.67501,41.088499999999996,33.61705Q41.1,33.55909,41.1,33.5L41.1,33.49893L41.1,29.5Q41.1,29.4409052,41.088499999999996,29.382946Q41.0769,29.324986,41.0543,29.27039Q41.0317,29.215793,40.9989,29.166657999999998Q40.966,29.117522,40.9243,29.075736Q40.8825,29.03395,40.8333,29.001118Q40.7842,28.968287,40.7296,28.945672Q40.675,28.923058,40.6171,28.911529Q40.5591,28.9,40.5,28.9L36.5,28.9ZM34.59093,36.25759Q34.67532,36.1732,34.72099,36.06293Q34.76667,35.95267,34.76667,35.83332Q34.76667,35.77423,34.75514,35.71627Q34.743610000000004,35.65831,34.72099,35.60371Q34.69838,35.54912,34.665549999999996,35.49998Q34.63272,35.45085,34.59093,35.40906Q34.54914,35.36727,34.50001,35.33444Q34.45087,35.30161,34.39628,35.278999999999996Q34.34168,35.25638,34.28372,35.24485Q34.22576,35.23332,34.166669999999996,35.23332Q34.04732,35.23332,33.93706,35.278999999999996Q33.82679,35.32467,33.7424,35.40906L33.74221,35.40926L30.100018,39.05144L30.10005,36.50001L30.10005,36.5Q30.10005,36.4409,30.088522,36.38295Q30.076993,36.32499,30.054378,36.27039Q30.031763,36.21579,29.998932,36.16666Q29.966101,36.11752,29.924314,36.075739999999996Q29.882528,36.03395,29.833392,36.00112Q29.784257,35.968289999999996,29.72966,35.94567Q29.675064,35.92306,29.617105,35.91153Q29.5591452,35.9,29.5000503659,35.9Q29.440956,35.9,29.382997,35.91153Q29.325038,35.92306,29.270442,35.94567Q29.215846,35.968289999999996,29.166711,36.00112Q29.117575,36.03395,29.075789,36.07573Q29.034003,36.11752,29.001171,36.16665Q28.96834,36.21579,28.945725,36.27038Q28.92311,36.32498,28.911580999999998,36.38294Q28.900051,36.4409,28.90005,36.49999L28.90005,36.5L28.9,40.5Q28.899998,40.6193,28.945669,40.7296Q28.99134,40.8399,29.075731,40.9242Q29.160121,41.0086,29.270383,41.0543Q29.380645,41.1,29.49999244807,41.1L33.49898,41.1L33.50005,41.1Q33.55914,41.1,33.6171,41.088499999999996Q33.67506,41.0769,33.72966,41.0543Q33.78426,41.0317,33.83339,40.9989Q33.88253,40.966,33.92431,40.9243Q33.9661,40.8825,33.99893,40.8333Q34.03176,40.7842,34.05438,40.7296Q34.07699,40.675,34.08852,40.6171Q34.10005,40.5591,34.10005,40.5Q34.10005,40.4409,34.08852,40.3829Q34.07699,40.325,34.05438,40.2704Q34.03176,40.2158,33.99893,40.1667Q33.9661,40.1175,33.92431,40.0757Q33.88253,40.0339,33.83339,40.0011Q33.78426,39.9683,33.72966,39.9457Q33.67506,39.9231,33.6171,39.911500000000004Q33.55914,39.9,33.50005,39.9L30.94852,39.9L34.59073,36.25779L34.59093,36.25759Z" fill-rule="evenodd" fill="#808080" fill-opacity="1"/></g></g></svg>