<svg xmlns="http://www.w3.org/2000/svg" xmlns:xlink="http://www.w3.org/1999/xlink" fill="none" version="1.1" width="16" height="16" viewBox="0 0 16 16"><defs><clipPath id="master_svg0_6301_20633"><rect x="16" y="16" width="16" height="16" rx="0"/></clipPath></defs><g transform="matrix(-1,0,0,-1,32,32)" clip-path="url(#master_svg0_6301_20633)"><g transform="matrix(-1,0,0,-1,59,59)"><path d="M40.9243,29.924256Q41.0087,29.839865,41.0543,29.729605Q41.1,29.619345,41.1,29.5Q41.1,29.4409052,41.088499999999996,29.382946Q41.0769,29.324986,41.0543,29.27039Q41.0317,29.215793,40.9989,29.166657999999998Q40.966,29.117522,40.9243,29.075736Q40.8825,29.03395,40.8333,29.001118Q40.7842,28.968287,40.7296,28.945672Q40.675,28.923058,40.6171,28.911529Q40.5591,28.9,40.5,28.9Q40.3806,28.9,40.2704,28.945674Q40.1601,28.991349,40.0757,29.075744L40.0755,29.075975L36.4335,32.71812L36.4335,30.166687Q36.4335,30.107592,36.42197,30.049633Q36.41044,29.991673,36.38782,29.937077Q36.36521,29.88248,36.33238,29.833345Q36.299549999999996,29.784209,36.25776,29.742423Q36.21597,29.700637,36.16684,29.667805Q36.1177,29.634974,36.06311,29.612359Q36.00851,29.5897446,35.95055,29.5782158Q35.89259,29.566687,35.8335,29.566687Q35.7744,29.566687,35.71644,29.5782158Q35.65848,29.5897446,35.603880000000004,29.612359Q35.54929,29.634974,35.50015,29.667805Q35.45102,29.700637,35.40923,29.742423Q35.36745,29.784209,35.33461,29.833345Q35.30178,29.88248,35.27917,29.937077Q35.25655,29.991673,35.24502,30.049633Q35.2335,30.107592,35.2335,30.166687L35.2335,34.16669Q35.2335,34.22578,35.24502,34.28374Q35.25655,34.3417,35.27917,34.3963Q35.30178,34.45089,35.33461,34.50003Q35.36745,34.54916,35.40923,34.59095Q35.45102,34.63274,35.50015,34.66557Q35.54929,34.6984,35.60389,34.72101Q35.65848,34.743629999999996,35.71644,34.755160000000004Q35.7744,34.76669,35.8335,34.76669L39.8335,34.76669Q39.8926,34.76669,39.9505,34.755160000000004Q40.0085,34.743629999999996,40.0631,34.72101Q40.1177,34.6984,40.1668,34.66557Q40.216,34.63274,40.2578,34.59095Q40.2995,34.54916,40.3324,34.50003Q40.3652,34.45089,40.3878,34.3963Q40.410399999999996,34.3417,40.422,34.28374Q40.4335,34.22578,40.4335,34.16669Q40.4335,34.10759,40.422,34.04963Q40.410399999999996,33.99167,40.3878,33.93708Q40.3652,33.88248,40.3324,33.83334Q40.2995,33.78421,40.2578,33.74242Q40.216,33.70064,40.1668,33.6678Q40.1177,33.63497,40.0631,33.61236Q40.0085,33.58974,39.9505,33.57822Q39.8926,33.56669,39.8335,33.56669L37.28198,33.56669L40.9236,29.924932L40.9243,29.924256L40.9243,29.924256ZM33.56669,37.28184L33.566720000000004,39.8334Q33.566720000000004,39.8924,33.57825,39.9504Q33.58977,40.0084,33.61239,40.063Q33.635,40.117599999999996,33.66783,40.1667Q33.70067,40.2158,33.74245,40.2576Q33.78424,40.2994,33.83337,40.3322Q33.882509999999996,40.3651,33.93711,40.3877Q33.9917,40.4103,34.04966,40.4218Q34.10762,40.4333,34.16672,40.4333Q34.22581,40.4333,34.28377,40.4218Q34.34173,40.4103,34.39633,40.3877Q34.450919999999996,40.3651,34.50006,40.3322Q34.54919,40.2994,34.59098,40.2576Q34.63277,40.2158,34.6656,40.1667Q34.69843,40.1175,34.72104,40.063Q34.74366,40.0084,34.75519,39.9504Q34.76672,39.8924,34.76672,39.8333L34.76667,35.833330000000004Q34.76667,35.77423,34.75514,35.71627Q34.743610000000004,35.65831,34.72099,35.60372Q34.69838,35.54912,34.665549999999996,35.49999Q34.63271,35.45085,34.59093,35.40907Q34.54914,35.36728,34.50001,35.334450000000004Q34.45087,35.30162,34.39627,35.278999999999996Q34.34168,35.256389999999996,34.28372,35.24486Q34.22576,35.23333,34.166669999999996,35.23333L30.166716,35.23334Q30.107621,35.23334,30.049662,35.24487Q29.991702,35.2564,29.937106,35.27902Q29.88251,35.30163,29.833374,35.33446Q29.784239,35.36729,29.742453,35.40908Q29.700666,35.45087,29.667835,35.5Q29.635004,35.54914,29.612389,35.60373Q29.5897746,35.65833,29.5782458,35.71629Q29.566717,35.77425,29.566717,35.83334Q29.566717,35.89244,29.5782458,35.9504Q29.5897747,36.008359999999996,29.612389,36.06295Q29.635004,36.11755,29.667835,36.16669Q29.700667,36.21582,29.742453,36.25761Q29.784239,36.29939,29.833375,36.33222Q29.88251,36.36506,29.937107,36.38767Q29.991703,36.41029,30.049663,36.42181Q30.107622,36.43334,30.166717,36.43334L32.71814,36.43334L29.07616,40.0753L29.075736,40.0757Q28.991345,40.1601,28.945672,40.2704Q28.9,40.3807,28.9,40.5Q28.9,40.5591,28.911529,40.6171Q28.923058,40.675,28.945672,40.7296Q28.968287,40.7842,29.001118,40.8333Q29.03395,40.8825,29.075736,40.9243Q29.117522,40.966,29.166657999999998,40.9989Q29.215793,41.0317,29.27039,41.0543Q29.324986,41.0769,29.382946,41.088499999999996Q29.4409052,41.1,29.5,41.1Q29.619347,41.1,29.72961,41.0543Q29.839873,41.0087,29.924264,40.9243L29.924688,40.9238L33.56669,37.28184Z" fill-rule="evenodd" fill="#808080" fill-opacity="1"/></g></g></svg>